<?xml version="1.0" encoding="UTF-8"?>
<svg id="a" data-name="分離模式" xmlns="http://www.w3.org/2000/svg" xmlns:xlink="http://www.w3.org/1999/xlink" viewBox="0 0 168.01 83.23">
  <defs>
    <linearGradient id="b" x1="410.69" y1="52.49" x2="435.83" y2="12.97" gradientTransform="translate(451.66) rotate(-180) scale(1 -1)" gradientUnits="userSpaceOnUse">
      <stop offset="0" stop-color="#fff"/>
      <stop offset="1" stop-color="#c9c7c7"/>
    </linearGradient>
  </defs>
  <g>
    <g>
      <path d="M5.14,21.7c-.48-1-.75-2.12-.75-3.3,0-4.19,3.4-7.59,7.59-7.59,1.21,0,2.35.28,3.37.79.61-3.79,3.89-6.68,7.85-6.68,3.51,0,6.49,2.28,7.55,5.44,1.37-1.33,3.23-2.15,5.3-2.15,4.19,0,7.59,3.4,7.59,7.59,0,.88-.15,1.72-.43,2.51,3.45,1.15,5.93,4.39,5.93,8.22,0,4.12-2.88,7.57-6.74,8.44,0,.07,0,.14,0,.21,0,1.8-.52,3.47-1.42,4.88l7.26,9.21-9.55-6.76c-1.51,1.11-3.37,1.77-5.39,1.77-3.18,0-5.97-1.63-7.6-4.1-1.34,2.97-4.32,5.03-7.78,5.03-4.33,0-7.91-3.23-8.46-7.42-.2.01-.39.02-.59.02-4.69,0-8.49-3.8-8.49-8.49,0-3.35,1.94-6.24,4.75-7.62Z" fill="url(#b)"/>
      <g>
        <path d="M41.06,40.18l7.17,9.09-.08-.05-7.11-9.02s0-.02.02-.02Z" fill="#fff"/>
        <path d="M43.26,18.64c.03-.09.06-.19.09-.28,3.37,1.19,5.79,4.39,5.79,8.17,0,.04,0,.08,0,.13-.06-3.73-2.5-6.89-5.87-8.01Z" fill="#fff"/>
        <path d="M36.16,8.64c-2.04,0-3.89.81-5.25,2.13-.05-.14-.1-.28-.16-.42,1.37-1.33,3.23-2.15,5.29-2.15,3.9,0,7.11,2.94,7.54,6.73-.58-3.57-3.68-6.3-7.42-6.3Z" fill="#fff"/>
        <path d="M25.92,40.32c.7,1.06,1.63,1.97,2.7,2.66-1.09-.65-2.02-1.53-2.75-2.56.02-.03.04-.07.05-.1Z" fill="#fff"/>
        <path d="M5.14,21.7c-.48-1-.75-2.12-.75-3.3,0-4.19,3.4-7.59,7.59-7.59,1.21,0,2.35.28,3.37.79.61-3.79,3.89-6.68,7.85-6.68,3.4,0,6.29,2.13,7.43,5.13-1.23-2.75-3.99-4.67-7.19-4.67-3.92,0-7.18,2.87-7.78,6.62-1.01-.5-2.14-.78-3.34-.78-4.15,0-7.52,3.37-7.52,7.52,0,1.17.27,2.28.75,3.27-2.79,1.37-4.71,4.23-4.71,7.55s2.05,6.38,4.99,7.69c-3.18-1.22-5.44-4.31-5.44-7.92,0-3.35,1.94-6.24,4.75-7.62Z" fill="#fff"/>
        <path d="M9.83,37.95c.43,3.29,2.75,5.98,5.83,6.96-3.21-.88-5.66-3.59-6.17-6.94.11,0,.22,0,.34-.01Z" fill="#fff"/>
      </g>
    </g>
    <g>
      <path d="M18.88,23.55h4.67v.93h-10.4v-.93h4.52v-1.63h-3.32v-.9h3.32v-1.51h-2.76v-.9c-.54.34-1.08.64-1.6.89-.16-.27-.46-.62-.71-.84,1.47-.58,3.16-1.68,4.35-2.8h-1.96v-.97h3.93c1.1,1.48,3.16,2.92,5.15,3.63-.23.21-.6.64-.78.93-.53-.22-1.07-.5-1.59-.81v.87h-2.82v1.51h3.35v.9h-3.35v1.63ZM14.93,18.59h6.69c-1.27-.77-2.45-1.76-3.33-2.75-.89.97-2.12,1.96-3.37,2.75Z" fill="#e94a08"/>
      <path d="M36.39,15.05v9.75h-1.13v-.49h-8.06v.49h-1.08v-9.75h10.28ZM35.26,23.38v-7.39h-8.06v7.39h8.06ZM34.35,18.63c-.3,1.01-.75,1.89-1.32,2.63.21.48.48.78.8.83.15.04.26-.41.33-1.1.18.17.53.39.73.49-.17,1.27-.69,1.7-1.41,1.44-.46-.11-.83-.43-1.12-.92-.43.42-.92.8-1.47,1.11-.12-.16-.46-.49-.64-.63.33-.18.65-.38.95-.6-1.21.18-2.45.39-3.44.54l-.12-.78c.9-.11,2.24-.3,3.57-.49l.02.69c.27-.21.52-.44.74-.7-.3-.84-.48-1.92-.6-3.1h-3.61v-.77h3.54l-.07-1.07h.95c.01.36.04.72.06,1.07h1.74c-.25-.26-.78-.57-1.22-.77l.53-.48c.44.19.99.49,1.26.73l-.54.51h.75v.77h-2.44c.09.8.21,1.56.36,2.18.33-.53.58-1.12.76-1.77l.91.17ZM30.87,18.64v2.13h-2.72v-2.13h2.72ZM30.07,19.23h-1.16v.96h1.16v-.96Z" fill="#e94a08"/>
      <path d="M19.22,31.42c.84,2.31,2.39,4.19,4.72,5.07-.28.22-.67.66-.85.97-2.31-.97-3.8-2.77-4.76-5.12-.63,2.01-1.96,3.93-4.76,5.12-.18-.28-.55-.64-.88-.87,2.93-1.16,4.13-3.16,4.62-5.17h-4.38v-1.07h4.59c.15-1.11.14-2.18.15-3.07h1.25c-.01.9-.02,1.97-.17,3.07h4.97v1.07h-4.5Z" fill="#e94a08"/>
      <path d="M36.81,35.07h-2.85v1.37c0,.49-.11.76-.55.9-.42.13-1.07.13-2.02.13-.05-.26-.21-.64-.36-.89.68.02,1.38.02,1.57.01.2-.01.25-.06.25-.19v-1.33h-4.09c.63.37,1.32.86,1.68,1.21l-.84.67c-.39-.42-1.23-1.03-1.94-1.44l.55-.43h-2.5v-.83h7.14v-.57c-2.47.06-4.86.1-6.61.12l-.04-.78c1.18,0,2.76-.01,4.47-.02v-.52h-3.67v-3.08h3.67v-.52h-4.62v-.8h4.62v-.78h1.12v.78h4.55v.8h-4.55v.52h3.8v3.08h-1.15c.74.3,1.47.69,1.91,1l-.68.56c-.17-.13-.39-.27-.64-.41l-1.07.02v.6h2.85v.83ZM28.08,30.61h2.59v-.56h-2.59v.56ZM30.67,31.82v-.58h-2.59v.58h2.59ZM31.79,30.06v.56h2.67v-.56h-2.67ZM34.47,31.24h-2.67v.58h2.67v-.58ZM31.79,32.99l1.98-.02c-.25-.11-.51-.21-.75-.29l.28-.21h-1.52v.52Z" fill="#e94a08"/>
    </g>
  </g>
  <g>
    <g>
      <path d="M70.68,7.26h-2.9c.44.35.89.75,1.16,1.06l-1.21,1.06h1.37v4.24h-5.31v.99h6.13s-.02.49-.05.72c-.17,2.21-.37,3.32-.8,3.75-.35.4-.75.54-1.27.59-.47.05-1.26.07-2.11.03-.03-.59-.25-1.32-.57-1.81.7.07,1.41.08,1.73.07.25,0,.4-.02.55-.15.17-.17.3-.62.4-1.54h-4v4.14h-1.96v-3.27c-1.41,1.37-3.27,2.51-5.09,3.2-.29-.49-.84-1.21-1.26-1.57,1.74-.52,3.55-1.44,4.86-2.5h-3.6c.25-1.14.5-2.88.62-4.29h4.47v-.95h-5.08v-1.64h3.42c-.39-.47-1.02-1.09-1.54-1.54l.64-.55h-1.01c-.54.84-1.12,1.59-1.71,2.16-.28-.33-.96-1.04-1.34-1.34.99-.87,1.91-2.19,2.43-3.52l1.76.5c-.08.22-.18.45-.3.67h3.69v1.52h-2.4c.45.39.89.8,1.14,1.11l-1.07.99h7.07c-.37-.45-1.09-1.06-1.62-1.49l.72-.62h-1.37c-.4.64-.85,1.19-1.31,1.62-.33-.33-1.06-.9-1.49-1.16.92-.79,1.68-1.96,2.09-3.15l1.81.45c-.08.23-.18.49-.28.72h4.61v1.51ZM61.84,13.61h-2.73c-.05.33-.08.67-.13.99h2.87v-.99ZM67.15,11.01h-3.35v.95h3.35v-.95Z" fill="none" stroke="#f7f8f8" stroke-linecap="round" stroke-linejoin="round" stroke-width="2.18"/>
      <path d="M88.24,12.82h-6.55v7.56h-2.18v-7.56h-6.45v-2.08h6.45v-6h2.18v6h6.55v2.08Z" fill="none" stroke="#f7f8f8" stroke-linecap="round" stroke-linejoin="round" stroke-width="2.18"/>
      <path d="M105.21,6.14v13.54h-2.11v-.97h-9.97v1.11h-2.01V6.14h14.09ZM103.1,16.77v-1.86c-.25.05-.55.05-.82.05h-1.46c-1.56,0-1.89-.8-1.89-2.5v-4.41h-1.62c-.08,4.07-.44,6.53-3.07,7.96-.17-.45-.69-1.14-1.11-1.52v2.28h9.97ZM93.13,8.06v6.35c1.99-1.16,2.18-2.98,2.21-6.35h-2.21ZM103.1,8.06h-2.31v4.46c0,.55.03.79.35.79h1.09c.23,0,.6-.02.87-.07v-5.18Z" fill="none" stroke="#f7f8f8" stroke-linecap="round" stroke-linejoin="round" stroke-width="2.18"/>
      <path d="M122.41,10.42h-10.79c0,2.9-.28,7.25-2.04,10.02-.39-.32-1.27-.85-1.78-1.04,1.68-2.56,1.79-6.32,1.79-8.98v-4.93h12.82v4.93ZM120.4,7.29h-8.78v1.32h8.78v-1.32ZM122.72,11.75v8.65h-1.89v-.6h-8.7v-8.04h1.91v6.3h6.79v-6.3h1.89ZM116.55,15.55v-1.64h-1.66v-1.61h1.66v-1.47h1.81v1.47h1.68v1.61h-1.68v1.64h1.99v1.61h-5.83v-1.61h2.03Z" fill="none" stroke="#f7f8f8" stroke-linecap="round" stroke-linejoin="round" stroke-width="2.18"/>
    </g>
    <g>
      <path d="M70.68,7.26h-2.9c.44.35.89.75,1.16,1.06l-1.21,1.06h1.37v4.24h-5.31v.99h6.13s-.02.49-.05.72c-.17,2.21-.37,3.32-.8,3.75-.35.4-.75.54-1.27.59-.47.05-1.26.07-2.11.03-.03-.59-.25-1.32-.57-1.81.7.07,1.41.08,1.73.07.25,0,.4-.02.55-.15.17-.17.3-.62.4-1.54h-4v4.14h-1.96v-3.27c-1.41,1.37-3.27,2.51-5.09,3.2-.29-.49-.84-1.21-1.26-1.57,1.74-.52,3.55-1.44,4.86-2.5h-3.6c.25-1.14.5-2.88.62-4.29h4.47v-.95h-5.08v-1.64h3.42c-.39-.47-1.02-1.09-1.54-1.54l.64-.55h-1.01c-.54.84-1.12,1.59-1.71,2.16-.28-.33-.96-1.04-1.34-1.34.99-.87,1.91-2.19,2.43-3.52l1.76.5c-.08.22-.18.45-.3.67h3.69v1.52h-2.4c.45.39.89.8,1.14,1.11l-1.07.99h7.07c-.37-.45-1.09-1.06-1.62-1.49l.72-.62h-1.37c-.4.64-.85,1.19-1.31,1.62-.33-.33-1.06-.9-1.49-1.16.92-.79,1.68-1.96,2.09-3.15l1.81.45c-.08.23-.18.49-.28.72h4.61v1.51ZM61.84,13.61h-2.73c-.05.33-.08.67-.13.99h2.87v-.99ZM67.15,11.01h-3.35v.95h3.35v-.95Z" fill="#005ead"/>
      <path d="M88.24,12.82h-6.55v7.56h-2.18v-7.56h-6.45v-2.08h6.45v-6h2.18v6h6.55v2.08Z" fill="#005ead"/>
      <path d="M105.21,6.14v13.54h-2.11v-.97h-9.97v1.11h-2.01V6.14h14.09ZM103.1,16.77v-1.86c-.25.05-.55.05-.82.05h-1.46c-1.56,0-1.89-.8-1.89-2.5v-4.41h-1.62c-.08,4.07-.44,6.53-3.07,7.96-.17-.45-.69-1.14-1.11-1.52v2.28h9.97ZM93.13,8.06v6.35c1.99-1.16,2.18-2.98,2.21-6.35h-2.21ZM103.1,8.06h-2.31v4.46c0,.55.03.79.35.79h1.09c.23,0,.6-.02.87-.07v-5.18Z" fill="#005ead"/>
      <path d="M122.41,10.42h-10.79c0,2.9-.28,7.25-2.04,10.02-.39-.32-1.27-.85-1.78-1.04,1.68-2.56,1.79-6.32,1.79-8.98v-4.93h12.82v4.93ZM120.4,7.29h-8.78v1.32h8.78v-1.32ZM122.72,11.75v8.65h-1.89v-.6h-8.7v-8.04h1.91v6.3h6.79v-6.3h1.89ZM116.55,15.55v-1.64h-1.66v-1.61h1.66v-1.47h1.81v1.47h1.68v1.61h-1.68v1.64h1.99v1.61h-5.83v-1.61h2.03Z" fill="#005ead"/>
    </g>
  </g>
  <g>
    <g>
      <path d="M4.58,76.34h21.08v2.18H4.58v-2.18ZM12.37,69.04c-.09-.33-.23-.68-.4-1.05-5.03.94-5.82,1.15-6.34,1.4-.09-.51-.49-1.33-.8-1.68.44-.21,1.01-.61,1.01-1.57v-8.21h8.44v6.81h-1.68c.68,1.12,1.4,2.55,1.73,3.51l-1.96.8ZM15.08,64.15c.26-1.15.49-2.88.66-4.35h-.61v-1.87h10.01v1.87h-3.6c-.05.87-.09,1.64-.19,2.39h4.02v1.96h-4.35c-.05.14-.07.28-.12.42h1.15v1.85c0,.47.05.51.44.51h1.05c.37,0,.47-.19.51-1.64.4.28,1.22.58,1.78.73-.19,2.15-.73,2.69-2.01,2.69h-1.68c-1.75,0-2.18-.54-2.18-2.22-.87,1.22-2.18,2.13-4.21,2.81h7.09v6.25H7.76v-6.25h7.67c-.26-.56-.8-1.38-1.26-1.8,2.55-.7,3.84-1.75,4.47-3.34h-3.56ZM8.23,59.59v.94h3.84v-.94h-3.84ZM8.23,63.05h3.84v-1.03h-3.84v1.03ZM11.17,66.21c-.16-.33-.35-.63-.51-.94l1.59-.54h-4.02v1.99l2.95-.51ZM20.09,70.73h-9.71v1.08h9.71v-1.08ZM20.09,73.04h-9.71v1.1h9.71v-1.1ZM19.1,62.19c.09-.73.14-1.5.19-2.39h-1.38c-.12.77-.23,1.59-.37,2.39h1.57Z" fill="none" stroke="#f7f8f8" stroke-linecap="round" stroke-linejoin="round" stroke-width="2.62"/>
      <path d="M35.35,58.16c-.63,1.61-1.4,3.27-2.32,4.84v16.05h-2.64v-12.02c-.54.68-1.1,1.31-1.64,1.9-.26-.68-1.03-2.18-1.5-2.85,2.18-2.1,4.3-5.43,5.52-8.75l2.57.84ZM39.45,72.39c-.96,2.01-2.39,4.28-3.58,5.71-.49-.42-1.52-1.17-2.15-1.5,1.17-1.29,2.43-3.23,3.23-4.96l2.5.75ZM43.21,70.91v8.21h-2.81v-8.21h-6.1v-2.53h6.1v-2.06h-4.58v-8.05h12.28v8.05h-4.89v2.06h6.06v2.53h-6.06ZM38.47,63.87h6.85v-3.13h-6.85v3.13ZM46.07,71.61c1.33,1.54,2.76,3.56,3.44,4.94l-2.2,1.33c-.63-1.38-2.06-3.53-3.3-5.12l2.06-1.15Z" fill="none" stroke="#f7f8f8" stroke-linecap="round" stroke-linejoin="round" stroke-width="2.62"/>
      <path d="M61.59,63.24c-.73.54-1.52,1.01-2.32,1.43-.35-.49-1.15-1.33-1.71-1.82-.26.89-.47,1.71-.7,2.43,1.17,1.8,1.43,3.46,1.43,4.84,0,1.52-.26,2.53-.94,3.06-.33.28-.75.44-1.24.51-.37.07-.89.07-1.38.07,0-.68-.21-1.71-.56-2.41.35.05.63.05.89.02.19,0,.4-.05.56-.19.26-.21.33-.73.33-1.4,0-1.1-.19-2.62-1.33-4.23.4-1.43.82-3.34,1.12-4.89h-1.68v18.41h-2.32v-20.89h4.77l.37-.09,1.73,1.01c-.3,1.1-.65,2.34-1.01,3.56,2.69-1.38,5.12-3.56,6.46-5.68l2.67.94c-.14.23-.3.49-.44.73,1.73,1.4,4.28,2.78,6.57,3.53-.42.7-.89,1.92-1.08,2.64-1.08-.47-2.22-1.05-3.3-1.73l-.02,1.52h-6.88v-1.36ZM63.11,72.41c-.14.47-.33.94-.51,1.38.82.54,1.73,1.19,2.22,1.68l-1.4,1.85c-.4-.47-1.12-1.08-1.85-1.61-.91,1.43-2.04,2.6-3.34,3.49-.37-.47-1.26-1.38-1.8-1.75,2.06-1.22,3.56-3.18,4.26-5.54l2.43.51ZM58.86,65.77h5.64v5.87h-5.64v-5.87ZM60.85,69.79h1.57v-2.15h-1.57v2.15ZM67.54,62.49c-.98-.65-1.92-1.36-2.71-2.08-.68.75-1.43,1.45-2.22,2.08h4.94ZM69.64,72.22c-.14.65-.3,1.29-.54,1.89,1.31.91,2.83,2.01,3.63,2.81l-1.64,1.87c-.65-.7-1.8-1.66-2.97-2.53-.68,1.17-1.54,2.15-2.57,2.9-.35-.47-1.26-1.4-1.8-1.75,1.85-1.19,2.97-3.16,3.42-5.54l2.48.35ZM65.55,65.77h5.8v5.87h-5.8v-5.87ZM67.56,69.79h1.64v-2.15h-1.64v2.15Z" fill="none" stroke="#f7f8f8" stroke-linecap="round" stroke-linejoin="round" stroke-width="2.62"/>
      <path d="M82.27,75.61c-.51-.89-1.45-2.2-2.34-3.37-.58,2.5-1.71,4.87-3.81,6.57-.4-.58-1.26-1.52-1.9-1.99,2.57-1.89,3.39-5.1,3.63-8.05h-3.3v-2.53h3.39v-2.95h-3.04v-2.46h3.04v-3.35h2.6v3.35h2.92v2.46h-2.92v2.95h3.3v2.53h-3.39l-.05.56c.98,1.01,3.23,3.58,3.74,4.23l-1.87,2.04ZM93.61,76.25c.37,0,.47-.3.51-2.76.51.4,1.59.82,2.29,1.01-.23,3.32-.87,4.16-2.53,4.16h-1.54c-2.06,0-2.5-.77-2.5-3.06v-4.07h-1.19c-.4,3.44-1.45,6.06-5.57,7.63-.28-.66-.98-1.61-1.5-2.08,3.42-1.15,4.14-3.06,4.44-5.54h-1.5v-13.43h10.39v13.43h-2.5v4.02c0,.63.05.7.4.7h.8ZM87.11,61.93h5.12v-1.38h-5.12v1.38ZM87.11,65.51h5.12v-1.38h-5.12v1.38ZM87.11,69.06h5.12v-1.38h-5.12v1.38Z" fill="none" stroke="#f7f8f8" stroke-linecap="round" stroke-linejoin="round" stroke-width="2.62"/>
      <path d="M109.86,60.78h1.24v1.68h-1.24v2.34h-4.3v.7h4.56v1.52h-4.56v.7h5.43v1.78h-13.03v-1.78h5.12v-.7h-4.12v-1.52h4.12v-.7h-4.07v-1.5h4.07v-.84h-5.26v-1.68h5.26v-.75h-4v-1.5h4v-1.26h2.48v1.26h4.3v2.25ZM97.81,76.43c3.32-.09,8.44-.26,13.24-.47l-.07,2.08c-4.68.21-9.66.42-12.98.54l-.19-2.15ZM109.98,70.16v5.36h-10.95v-5.36h10.95ZM101.18,72.22h2.15v-.77h-2.15v.77ZM101.18,74.21h2.15v-.75h-2.15v.75ZM105.56,60.78h1.96v-.75h-1.96v.75ZM107.52,62.47h-1.96v.84h1.96v-.84ZM107.71,71.45h-2.06v.77h2.06v-.77ZM107.71,73.46h-2.06v.75h2.06v-.75ZM114.28,73.27h-2.53v-13.17h2.53v13.17ZM118.8,57.74v18.15c0,1.47-.3,2.22-1.15,2.64-.84.44-2.11.56-3.95.54-.09-.75-.47-1.94-.84-2.74,1.24.05,2.39.05,2.78.05.37,0,.51-.12.51-.49v-18.15h2.64Z" fill="none" stroke="#f7f8f8" stroke-linecap="round" stroke-linejoin="round" stroke-width="2.62"/>
      <path d="M134.18,66.42c1.54,4.56,4.37,8.23,8.75,10.01-.7.58-1.61,1.82-2.06,2.62-4.23-1.99-6.95-5.4-8.77-9.92-1.26,3.91-3.79,7.56-8.75,9.94-.44-.77-1.26-1.78-2.08-2.36,5.36-2.39,7.58-6.27,8.49-10.29h-8.05v-2.88h8.51c.23-2.2.21-4.33.23-6.25h3.04c-.02,1.92-.05,4.07-.28,6.25h9.19v2.88h-8.23Z" fill="none" stroke="#f7f8f8" stroke-linecap="round" stroke-linejoin="round" stroke-width="2.62"/>
      <path d="M162.22,76.01h-1.96c1.94.54,3.84,1.12,5.15,1.54l-2.32,1.5c-1.52-.58-4.12-1.45-6.67-2.13l1.08-.91h-4.3l1.22.84c-1.92.96-5.08,1.82-7.7,2.22-.37-.49-1.12-1.31-1.59-1.78,1.87-.23,4.07-.75,5.68-1.29h-2.11v-4.96c-.89.44-1.8.84-2.74,1.15-.37-.58-1.08-1.52-1.64-1.99,1.87-.47,3.79-1.29,5.29-2.29h-4.47v-1.9h5.64v-.65h-2.85v-1.4h2.85v-.73h-3.13v-.75h-2.36v-3.91h8.89c-.12-.33-.26-.63-.4-.91l2.78-.7c.26.47.56,1.08.77,1.61h8.28v3.91h-2.34v.75h-3.16v.73h2.99v1.4h-2.99v.65h5.64v1.9h-3.91c1.38.82,3.04,1.45,4.68,1.85-.58.49-1.33,1.47-1.71,2.11-.89-.28-1.75-.65-2.6-1.12v5.26ZM150.78,61.77v-.79h2.55v.79h4.19v-.79h2.6v.79h2.85v-1.1h-15.16v1.1h2.97ZM159.55,70.7v-.7h-8.33v.7h8.33ZM159.55,72.67v-.7h-8.33v.7h8.33ZM151.23,73.95v.73h8.33v-.73h-8.33ZM152.77,67.92c-.23.26-.44.51-.73.75h7.27c-.26-.23-.51-.49-.77-.75h-5.78ZM153.33,63.97h4.19v-.73h-4.19v.73ZM153.33,66.02h4.19v-.65h-4.19v.65Z" fill="none" stroke="#f7f8f8" stroke-linecap="round" stroke-linejoin="round" stroke-width="2.62"/>
    </g>
    <g>
      <path d="M4.58,76.34h21.08v2.18H4.58v-2.18ZM12.37,69.04c-.09-.33-.23-.68-.4-1.05-5.03.94-5.82,1.15-6.34,1.4-.09-.51-.49-1.33-.8-1.68.44-.21,1.01-.61,1.01-1.57v-8.21h8.44v6.81h-1.68c.68,1.12,1.4,2.55,1.73,3.51l-1.96.8ZM15.08,64.15c.26-1.15.49-2.88.66-4.35h-.61v-1.87h10.01v1.87h-3.6c-.05.87-.09,1.64-.19,2.39h4.02v1.96h-4.35c-.05.14-.07.28-.12.42h1.15v1.85c0,.47.05.51.44.51h1.05c.37,0,.47-.19.51-1.64.4.28,1.22.58,1.78.73-.19,2.15-.73,2.69-2.01,2.69h-1.68c-1.75,0-2.18-.54-2.18-2.22-.87,1.22-2.18,2.13-4.21,2.81h7.09v6.25H7.76v-6.25h7.67c-.26-.56-.8-1.38-1.26-1.8,2.55-.7,3.84-1.75,4.47-3.34h-3.56ZM8.23,59.59v.94h3.84v-.94h-3.84ZM8.23,63.05h3.84v-1.03h-3.84v1.03ZM11.17,66.21c-.16-.33-.35-.63-.51-.94l1.59-.54h-4.02v1.99l2.95-.51ZM20.09,70.73h-9.71v1.08h9.71v-1.08ZM20.09,73.04h-9.71v1.1h9.71v-1.1ZM19.1,62.19c.09-.73.14-1.5.19-2.39h-1.38c-.12.77-.23,1.59-.37,2.39h1.57Z" fill="#005ead"/>
      <path d="M35.35,58.16c-.63,1.61-1.4,3.27-2.32,4.84v16.05h-2.64v-12.02c-.54.68-1.1,1.31-1.64,1.9-.26-.68-1.03-2.18-1.5-2.85,2.18-2.1,4.3-5.43,5.52-8.75l2.57.84ZM39.45,72.39c-.96,2.01-2.39,4.28-3.58,5.71-.49-.42-1.52-1.17-2.15-1.5,1.17-1.29,2.43-3.23,3.23-4.96l2.5.75ZM43.21,70.91v8.21h-2.81v-8.21h-6.1v-2.53h6.1v-2.06h-4.58v-8.05h12.28v8.05h-4.89v2.06h6.06v2.53h-6.06ZM38.47,63.87h6.85v-3.13h-6.85v3.13ZM46.07,71.61c1.33,1.54,2.76,3.56,3.44,4.94l-2.2,1.33c-.63-1.38-2.06-3.53-3.3-5.12l2.06-1.15Z" fill="#005ead"/>
      <path d="M61.59,63.24c-.73.54-1.52,1.01-2.32,1.43-.35-.49-1.15-1.33-1.71-1.82-.26.89-.47,1.71-.7,2.43,1.17,1.8,1.43,3.46,1.43,4.84,0,1.52-.26,2.53-.94,3.06-.33.28-.75.44-1.24.51-.37.07-.89.07-1.38.07,0-.68-.21-1.71-.56-2.41.35.05.63.05.89.02.19,0,.4-.05.56-.19.26-.21.33-.73.33-1.4,0-1.1-.19-2.62-1.33-4.23.4-1.43.82-3.34,1.12-4.89h-1.68v18.41h-2.32v-20.89h4.77l.37-.09,1.73,1.01c-.3,1.1-.65,2.34-1.01,3.56,2.69-1.38,5.12-3.56,6.46-5.68l2.67.94c-.14.23-.3.49-.44.73,1.73,1.4,4.28,2.78,6.57,3.53-.42.7-.89,1.92-1.08,2.64-1.08-.47-2.22-1.05-3.3-1.73l-.02,1.52h-6.88v-1.36ZM63.11,72.41c-.14.47-.33.94-.51,1.38.82.54,1.73,1.19,2.22,1.68l-1.4,1.85c-.4-.47-1.12-1.08-1.85-1.61-.91,1.43-2.04,2.6-3.34,3.49-.37-.47-1.26-1.38-1.8-1.75,2.06-1.22,3.56-3.18,4.26-5.54l2.43.51ZM58.86,65.77h5.64v5.87h-5.64v-5.87ZM60.85,69.79h1.57v-2.15h-1.57v2.15ZM67.54,62.49c-.98-.65-1.92-1.36-2.71-2.08-.68.75-1.43,1.45-2.22,2.08h4.94ZM69.64,72.22c-.14.65-.3,1.29-.54,1.89,1.31.91,2.83,2.01,3.63,2.81l-1.64,1.87c-.65-.7-1.8-1.66-2.97-2.53-.68,1.17-1.54,2.15-2.57,2.9-.35-.47-1.26-1.4-1.8-1.75,1.85-1.19,2.97-3.16,3.42-5.54l2.48.35ZM65.55,65.77h5.8v5.87h-5.8v-5.87ZM67.56,69.79h1.64v-2.15h-1.64v2.15Z" fill="#005ead"/>
      <path d="M82.27,75.61c-.51-.89-1.45-2.2-2.34-3.37-.58,2.5-1.71,4.87-3.81,6.57-.4-.58-1.26-1.52-1.9-1.99,2.57-1.89,3.39-5.1,3.63-8.05h-3.3v-2.53h3.39v-2.95h-3.04v-2.46h3.04v-3.35h2.6v3.35h2.92v2.46h-2.92v2.95h3.3v2.53h-3.39l-.05.56c.98,1.01,3.23,3.58,3.74,4.23l-1.87,2.04ZM93.61,76.25c.37,0,.47-.3.51-2.76.51.4,1.59.82,2.29,1.01-.23,3.32-.87,4.16-2.53,4.16h-1.54c-2.06,0-2.5-.77-2.5-3.06v-4.07h-1.19c-.4,3.44-1.45,6.06-5.57,7.63-.28-.66-.98-1.61-1.5-2.08,3.42-1.15,4.14-3.06,4.44-5.54h-1.5v-13.43h10.39v13.43h-2.5v4.02c0,.63.05.7.4.7h.8ZM87.11,61.93h5.12v-1.38h-5.12v1.38ZM87.11,65.51h5.12v-1.38h-5.12v1.38ZM87.11,69.06h5.12v-1.38h-5.12v1.38Z" fill="#005ead"/>
      <path d="M109.86,60.78h1.24v1.68h-1.24v2.34h-4.3v.7h4.56v1.52h-4.56v.7h5.43v1.78h-13.03v-1.78h5.12v-.7h-4.12v-1.52h4.12v-.7h-4.07v-1.5h4.07v-.84h-5.26v-1.68h5.26v-.75h-4v-1.5h4v-1.26h2.48v1.26h4.3v2.25ZM97.81,76.43c3.32-.09,8.44-.26,13.24-.47l-.07,2.08c-4.68.21-9.66.42-12.98.54l-.19-2.15ZM109.98,70.16v5.36h-10.95v-5.36h10.95ZM101.18,72.22h2.15v-.77h-2.15v.77ZM101.18,74.21h2.15v-.75h-2.15v.75ZM105.56,60.78h1.96v-.75h-1.96v.75ZM107.52,62.47h-1.96v.84h1.96v-.84ZM107.71,71.45h-2.06v.77h2.06v-.77ZM107.71,73.46h-2.06v.75h2.06v-.75ZM114.28,73.27h-2.53v-13.17h2.53v13.17ZM118.8,57.74v18.15c0,1.47-.3,2.22-1.15,2.64-.84.44-2.11.56-3.95.54-.09-.75-.47-1.94-.84-2.74,1.24.05,2.39.05,2.78.05.37,0,.51-.12.51-.49v-18.15h2.64Z" fill="#005ead"/>
      <path d="M134.18,66.42c1.54,4.56,4.37,8.23,8.75,10.01-.7.58-1.61,1.82-2.06,2.62-4.23-1.99-6.95-5.4-8.77-9.92-1.26,3.91-3.79,7.56-8.75,9.94-.44-.77-1.26-1.78-2.08-2.36,5.36-2.39,7.58-6.27,8.49-10.29h-8.05v-2.88h8.51c.23-2.2.21-4.33.23-6.25h3.04c-.02,1.92-.05,4.07-.28,6.25h9.19v2.88h-8.23Z" fill="#005ead"/>
      <path d="M162.22,76.01h-1.96c1.94.54,3.84,1.12,5.15,1.54l-2.32,1.5c-1.52-.58-4.12-1.45-6.67-2.13l1.08-.91h-4.3l1.22.84c-1.92.96-5.08,1.82-7.7,2.22-.37-.49-1.12-1.31-1.59-1.78,1.87-.23,4.07-.75,5.68-1.29h-2.11v-4.96c-.89.44-1.8.84-2.74,1.15-.37-.58-1.08-1.52-1.64-1.99,1.87-.47,3.79-1.29,5.29-2.29h-4.47v-1.9h5.64v-.65h-2.85v-1.4h2.85v-.73h-3.13v-.75h-2.36v-3.91h8.89c-.12-.33-.26-.63-.4-.91l2.78-.7c.26.47.56,1.08.77,1.61h8.28v3.91h-2.34v.75h-3.16v.73h2.99v1.4h-2.99v.65h5.64v1.9h-3.91c1.38.82,3.04,1.45,4.68,1.85-.58.49-1.33,1.47-1.71,2.11-.89-.28-1.75-.65-2.6-1.12v5.26ZM150.78,61.77v-.79h2.55v.79h4.19v-.79h2.6v.79h2.85v-1.1h-15.16v1.1h2.97ZM159.55,70.7v-.7h-8.33v.7h8.33ZM159.55,72.67v-.7h-8.33v.7h8.33ZM151.23,73.95v.73h8.33v-.73h-8.33ZM152.77,67.92c-.23.26-.44.51-.73.75h7.27c-.26-.23-.51-.49-.77-.75h-5.78ZM153.33,63.97h4.19v-.73h-4.19v.73ZM153.33,66.02h4.19v-.65h-4.19v.65Z" fill="#005ead"/>
    </g>
  </g>
  <g>
    <g>
      <path d="M62.73,26.75c-.75,1.92-1.67,3.89-2.75,5.75v19.06h-3.14v-14.28c-.64.81-1.31,1.56-1.95,2.25-.31-.81-1.22-2.58-1.78-3.39,2.58-2.5,5.11-6.45,6.56-10.39l3.06,1ZM67.59,43.65c-1.14,2.39-2.83,5.08-4.25,6.78-.58-.5-1.81-1.39-2.56-1.78,1.39-1.53,2.89-3.83,3.83-5.89l2.97.89ZM72.06,41.9v9.75h-3.33v-9.75h-7.25v-3h7.25v-2.45h-5.45v-9.56h14.59v9.56h-5.81v2.45h7.2v3h-7.2ZM66.42,33.53h8.14v-3.72h-8.14v3.72ZM75.45,42.73c1.58,1.83,3.28,4.22,4.08,5.86l-2.61,1.58c-.75-1.64-2.45-4.2-3.92-6.09l2.45-1.36Z"/>
      <path d="M108.02,48.12h-10.81v3.53h-3.39v-3.53h-10.56v-2.83h10.56v-1.44h-7.92v-10.42h19.7v10.42h-8.39v1.44h10.81v2.83ZM94.82,32.34h-9.92v-5.56h9.92v5.56ZM91.74,28.75h-3.89v1.61h3.89v-1.61ZM89.12,37.45h4.7v-1.47h-4.7v1.47ZM93.82,41.31v-1.5h-4.7v1.5h4.7ZM106.49,32.34h-9.98v-5.56h9.98v5.56ZM102.21,35.98h-5v1.47h5v-1.47ZM102.21,39.81h-5v1.5h5v-1.5ZM103.41,28.75h-3.97v1.61h3.97v-1.61Z"/>
      <path d="M125.36,35.87c-.33,4.11-1.03,7.42-2.06,10.03,2.14,2,4.95,2.45,8.11,2.45,1.14,0,5,0,6.42-.03-.39.67-.83,1.97-1,2.81h-5.59c-3.67,0-6.78-.56-9.2-2.7-.83,1.31-1.75,2.39-2.86,3.2-.44-.53-1.36-1.47-2-1.89v1.86h-2.89v-13.92c-.42.69-.83,1.31-1.28,1.89-.19-.81-.97-2.75-1.47-3.58,1.89-2.56,3.5-6.39,4.42-10.23l2.97.81c-.47,1.75-1.06,3.53-1.75,5.28v17.7c1.17-.86,2.17-1.97,2.97-3.36-.89-1.42-1.64-3.14-2.2-5.36l2.28-.72c.31,1.19.69,2.25,1.14,3.17.47-1.53.83-3.22,1.06-5.2h-2.5c-.47.28-.92.61-.92.89-.22-.56-.86-1.75-1.28-2.31.56-.17,1.31-.97,1.83-1.86.36-.58,1.28-2.39,2.08-4.53h-2.95v-2.81h4.03l.86-.36,1.86,1.28c-.94,2.56-2.14,5.11-3.28,7.2h.94l.5-.06,1.72.36ZM129.02,30.06h-3v-2.28h3v-1.86h2.7v1.86h4.42v3.64h1.67v2.36h-1.67v3.75h-4.42v1.33h4.53v2.47h-4.53v1.33h5.25v2.56h-5.25v2.53h-2.7v-2.53h-3.75v-2.56h3.75v-1.33h-3.2v-2.47h3.2v-1.33h-3v-2.28h3v-1.47h-4.11v-2.36h4.11v-1.36ZM131.72,30.06v1.36h1.94v-1.36h-1.94ZM133.66,33.78h-1.94v1.47h1.94v-1.47Z"/>
      <path d="M151.09,32.89h-9.98v-2.61h4.45c-.39-1.06-1.08-2.45-1.7-3.5l2.42-1.19c.72,1.14,1.53,2.67,1.97,3.7l-1.78,1h4.61v2.61ZM150.36,50.12h-5.61v1.17h-2.56v-9.59h8.17v8.42ZM150.2,36.64h-7.92v-2.5h7.92v2.5ZM142.28,37.87h7.92v2.5h-7.92v-2.5ZM144.75,44.34v3.11h2.97v-3.11h-2.97ZM160.81,26.47c-.14.42-.31.81-.5,1.19,1.78,2.33,4.61,4.67,7.2,6.03-.72.58-1.67,1.81-2.17,2.67-2.2-1.44-4.58-3.75-6.47-6.17-1.7,2.56-3.92,4.7-6.47,6.28-.39-.72-1.39-1.92-2-2.42,3.42-1.89,6.25-5.11,7.67-8.5l2.75.92ZM165.81,42.2c-2.53,4.83-6.92,7.72-12.53,9.45-.33-.81-1.06-1.97-1.69-2.7,5.17-1.25,9.42-3.78,11.53-7.89l2.7,1.14ZM160.95,34.23c-1.64,2.58-4.14,4.86-6.61,6.36-.44-.64-1.25-1.53-1.95-2.14,2.22-1.14,4.72-3.2,6-5.31l2.56,1.08ZM163.51,37.98c-2.03,3.39-5.28,6.03-8.78,7.81-.39-.75-1.17-1.72-1.81-2.39,3.14-1.31,6.36-3.67,8.03-6.5l2.56,1.08Z"/>
    </g>
    <g>
      <path d="M62.73,26.75c-.75,1.92-1.67,3.89-2.75,5.75v19.06h-3.14v-14.28c-.64.81-1.31,1.56-1.95,2.25-.31-.81-1.22-2.58-1.78-3.39,2.58-2.5,5.11-6.45,6.56-10.39l3.06,1ZM67.59,43.65c-1.14,2.39-2.83,5.08-4.25,6.78-.58-.5-1.81-1.39-2.56-1.78,1.39-1.53,2.89-3.83,3.83-5.89l2.97.89ZM72.06,41.9v9.75h-3.33v-9.75h-7.25v-3h7.25v-2.45h-5.45v-9.56h14.59v9.56h-5.81v2.45h7.2v3h-7.2ZM66.42,33.53h8.14v-3.72h-8.14v3.72ZM75.45,42.73c1.58,1.83,3.28,4.22,4.08,5.86l-2.61,1.58c-.75-1.64-2.45-4.2-3.92-6.09l2.45-1.36Z" fill="#ebe036"/>
      <path d="M108.02,48.12h-10.81v3.53h-3.39v-3.53h-10.56v-2.83h10.56v-1.44h-7.92v-10.42h19.7v10.42h-8.39v1.44h10.81v2.83ZM94.82,32.34h-9.92v-5.56h9.92v5.56ZM91.74,28.75h-3.89v1.61h3.89v-1.61ZM89.12,37.45h4.7v-1.47h-4.7v1.47ZM93.82,41.31v-1.5h-4.7v1.5h4.7ZM106.49,32.34h-9.98v-5.56h9.98v5.56ZM102.21,35.98h-5v1.47h5v-1.47ZM102.21,39.81h-5v1.5h5v-1.5ZM103.41,28.75h-3.97v1.61h3.97v-1.61Z" fill="#ebe036"/>
      <path d="M125.36,35.87c-.33,4.11-1.03,7.42-2.06,10.03,2.14,2,4.95,2.45,8.11,2.45,1.14,0,5,0,6.42-.03-.39.67-.83,1.97-1,2.81h-5.59c-3.67,0-6.78-.56-9.2-2.7-.83,1.31-1.75,2.39-2.86,3.2-.44-.53-1.36-1.47-2-1.89v1.86h-2.89v-13.92c-.42.69-.83,1.31-1.28,1.89-.19-.81-.97-2.75-1.47-3.58,1.89-2.56,3.5-6.39,4.42-10.23l2.97.81c-.47,1.75-1.06,3.53-1.75,5.28v17.7c1.17-.86,2.17-1.97,2.97-3.36-.89-1.42-1.64-3.14-2.2-5.36l2.28-.72c.31,1.19.69,2.25,1.14,3.17.47-1.53.83-3.22,1.06-5.2h-2.5c-.47.28-.92.61-.92.89-.22-.56-.86-1.75-1.28-2.31.56-.17,1.31-.97,1.83-1.86.36-.58,1.28-2.39,2.08-4.53h-2.95v-2.81h4.03l.86-.36,1.86,1.28c-.94,2.56-2.14,5.11-3.28,7.2h.94l.5-.06,1.72.36ZM129.02,30.06h-3v-2.28h3v-1.86h2.7v1.86h4.42v3.64h1.67v2.36h-1.67v3.75h-4.42v1.33h4.53v2.47h-4.53v1.33h5.25v2.56h-5.25v2.53h-2.7v-2.53h-3.75v-2.56h3.75v-1.33h-3.2v-2.47h3.2v-1.33h-3v-2.28h3v-1.47h-4.11v-2.36h4.11v-1.36ZM131.72,30.06v1.36h1.94v-1.36h-1.94ZM133.66,33.78h-1.94v1.47h1.94v-1.47Z" fill="#ebe036"/>
      <path d="M151.09,32.89h-9.98v-2.61h4.45c-.39-1.06-1.08-2.45-1.7-3.5l2.42-1.19c.72,1.14,1.53,2.67,1.97,3.7l-1.78,1h4.61v2.61ZM150.36,50.12h-5.61v1.17h-2.56v-9.59h8.17v8.42ZM150.2,36.64h-7.92v-2.5h7.92v2.5ZM142.28,37.87h7.92v2.5h-7.92v-2.5ZM144.75,44.34v3.11h2.97v-3.11h-2.97ZM160.81,26.47c-.14.42-.31.81-.5,1.19,1.78,2.33,4.61,4.67,7.2,6.03-.72.58-1.67,1.81-2.17,2.67-2.2-1.44-4.58-3.75-6.47-6.17-1.7,2.56-3.92,4.7-6.47,6.28-.39-.72-1.39-1.92-2-2.42,3.42-1.89,6.25-5.11,7.67-8.5l2.75.92ZM165.81,42.2c-2.53,4.83-6.92,7.72-12.53,9.45-.33-.81-1.06-1.97-1.69-2.7,5.17-1.25,9.42-3.78,11.53-7.89l2.7,1.14ZM160.95,34.23c-1.64,2.58-4.14,4.86-6.61,6.36-.44-.64-1.25-1.53-1.95-2.14,2.22-1.14,4.72-3.2,6-5.31l2.56,1.08ZM163.51,37.98c-2.03,3.39-5.28,6.03-8.78,7.81-.39-.75-1.17-1.72-1.81-2.39,3.14-1.31,6.36-3.67,8.03-6.5l2.56,1.08Z" fill="#ebe036"/>
    </g>
  </g>
</svg>