<?xml version="1.0" encoding="UTF-8"?>
<svg id="_圖層_1" data-name="圖層_1" xmlns="http://www.w3.org/2000/svg" version="1.1" viewBox="0 0 2100 2100">
  <!-- Generator: Adobe Illustrator 29.6.0, SVG Export Plug-In . SVG Version: 2.1.1 Build 207)  -->
  <defs>
    <style>
      .st0, .st1 {
        fill: #824846;
      }

      .st2 {
        fill: #f65119;
      }

      .st3 {
        fill: #de3a15;
      }

      .st4 {
        fill: #ff7757;
      }

      .st1 {
        font-family: ARFangXinShuH7B5Std-HV-B5pc-H, 'AR FangXinShuH7B5Std';
        font-size: 510.2px;
      }

      .st1, .st5, .st6 {
        isolation: isolate;
      }

      .st7 {
        fill: #f2e1da;
      }

      .st8 {
        fill: none;
      }

      .st9 {
        opacity: .8;
      }

      .st9, .st6 {
        mix-blend-mode: soft-light;
      }

      .st10 {
        fill: #f2d1c7;
      }

      .st11, .st6 {
        fill: #f7cbb5;
      }

      .st12 {
        mix-blend-mode: multiply;
        opacity: .4;
      }

      .st13 {
        fill: #ffdf66;
      }

      .st14 {
        fill: #ffe799;
      }

      .st15 {
        fill: #f4ddd3;
      }

      .st16 {
        fill: #ffc823;
      }

      .st17 {
        fill: #cc997d;
      }

      .st18 {
        fill: #492121;
      }
    </style>
  </defs>
  <g class="st5">
    <g id="objects">
      <g>
        <path class="st17" d="M1048.9,2028.1c867.1-246.1,777.4-1582.2,777.4-1582.2,0,0-234.5-47-410.3-199.1-175.9-152.6-263-172.7-367-172.7s-191.7,20.1-367,172.7c-175.9,152.6-410.3,199.1-410.3,199.1,0,0-89.8,1336.1,777.4,1582.2Z"/>
        <g>
          <path class="st7" d="M1048.9,1959.4C349.2,1744,330.2,730,335.5,497.6c82.9-23.2,251.9-81.9,389.2-201.2,167.9-145.2,240.3-156.8,324.3-156.8s156.3,11.1,324.3,156.8c137.8,119.4,306.3,178,389.7,201.2,2.6,103.5,0,362.3-64.4,634.8-106.7,449.4-324.8,727.2-649,827h-.5Z"/>
          <path class="st0" d="M1048.9,1967.9h-2.6c-300-92.9-510.7-338.5-626.3-730.9-91.4-309.5-95.6-620.5-92.9-739.9v-6.3l5.8-1.6c86.1-24.3,250.9-82.4,386-199.6,170-147.3,243.5-158.4,329.5-158.4s159.5,11.6,329.5,158.4c135.2,117.2,300,175.3,386,199.6l5.8,1.6v6.3c2.6,99.8.5,361.8-64.4,636.9-107.2,452.1-327.4,732.5-654.9,832.8h-2.6l1.1,1.1ZM343.9,503.5c-4.2,218.1,15.3,1232.1,705.5,1447,320-99.3,535.5-375.5,641.1-820.1,63.4-267.7,66.5-523.4,64.4-626.9-88.7-25.3-251.9-84.5-386.6-201.2-165.8-143.6-236.6-154.7-319-154.7s-153.2,11.1-318.4,154.7c-134.7,116.7-297.9,175.9-386.6,201.2h-.5Z"/>
        </g>
        <path class="st10" d="M1048.9,1924.6C399.9,1715.5,365.6,768.6,367.7,521.9c94-28.5,248.7-88.7,378.7-201.2,159.5-138.4,223.4-148.4,302.6-148.4s143.1,10.6,302.6,148.4c129.9,112.5,284.6,172.7,378.7,201.2,1.1,112-4.2,351.7-63.9,602.6-102.5,432.5-310,701.3-617.4,800.1Z"/>
        <path class="st15" d="M1285,1362.2l-13.7,11.1-470,373.4c73.4,64.4,155.8,112.5,247.7,143.1,289.9-97.7,486.4-357.5,585.1-773.1,3.2-13.2,5.8-25.9,9-39.1l-358.1,284.6h0Z"/>
        <g>
          <g>
            <path class="st2" d="M416.3,1587.7c-113.5,65-231.3,108.8-340.1,126.7,15.3,46.5,38,90.3,67.1,129.4-41.7,59.7-89.8,119.4-142.1,179,132-26.9,276.2-77.1,418.8-145.8,11.6-49.6,22.7-99.3,34.3-148.9-14.8-46.5-23.2-94.5-38-140.5h0Z"/>
            <path class="st3" d="M283.2,1714.9c0,.5,25.9,100.9,137.3,160,26.9-110.9,53.9-221.8,81.3-331.7-47-43.8-94-85.6-140.5-126.2-26.4,98.8-52.3,198-78.2,297.9Z"/>
          </g>
          <g>
            <path class="st2" d="M1683.7,1587.7c113.5,65,231.3,108.8,340.1,126.7-15.3,46.5-38,90.3-67.1,129.4,41.7,59.7,89.8,119.4,142.1,179-132-26.9-276.2-77.1-418.8-145.8-11.6-49.6-22.7-99.3-34.3-148.9,14.8-46.5,23.2-94.5,38-140.5h0Z"/>
            <path class="st3" d="M1816.8,1714.9c0,.5-25.9,100.9-137.3,160-26.9-110.9-53.9-221.8-81.3-331.7,47-43.8,94-85.6,140.5-126.2,26.4,98.8,52.3,198,78.2,297.9Z"/>
          </g>
          <path class="st4" d="M1818.9,1716c-438.9,98.2-1096.9,97.7-1535.7-.5,25.9-99.8,51.8-199.1,78.2-297.9,393.4,118.3,986.5,118.3,1379.4.5,26.4,98.8,52.3,198,78.2,297.9h0Z"/>
        </g>
        <g>
          <g class="st5">
            <text class="st1" transform="translate(796 792.3)"><tspan x="0" y="0">特</tspan></text>
            <text class="st1" transform="translate(796 1325.7)"><tspan x="0" y="0">優</tspan></text>
          </g>
          <g class="st9">
            <path class="st18" d="M809.2,635.5l15.3,59.7c25.3-7.4,50.7-15.8,74.5-23.8v166.9h59.1v-188.5l38-15.3v23.2h171.6v106.7c0,9-2.6,15.3-6.9,19-4.8,3.7-12.7,5.8-25.3,5.8s-31.7-1.6-51.8-4.8l9.5,49.6c19,3.7,39.6,5.3,62.3,5.3s46.5-4.2,58.1-12.1c11.1-7.9,16.9-21.7,16.9-39.1v-129.4h58.1v-41.7h-58.1v-50.7h48.6v-41.7h-105.1v-59.7h114.6v-41.7h-114.6v-58.1h-63.4v58.1h-112.5v41.7h112.5v59.7h-103v41.7h159.5v50.7h-166.9l-2.6-25.9c-13.2,3.7-26.4,7.4-40.1,11.1v-85.6h35.4v-43.8h-35.4v-103.5h-59.1v103.5h-25.3c2.6-19,5.3-37.5,6.9-55.5l-52.3-11.1c0,57.6-6.9,114.6-18.5,171.6l34.9,18.5c7.9-25.9,15.3-52.8,21.1-79.2h33.8v100.3c-29,6.9-59.1,13.2-89.8,20.1v-2.1ZM1059.5,660.8l-47,37c30.1,21.1,56,41.7,77.1,63.9l32.7-24.3c-18-25.3-38.6-51.2-62.8-76v-.5ZM1175.2,1317.8c24.8-14.3,48.1-31.2,67.6-50.7v-31.7h-173.2l13.2-13.2h31.2c20.6,0,35.9,0,46.5-1.1,19-1.1,32.2-5.8,39.6-13.7,5.3-5.8,8.4-13.7,10.6-24.3,18,15.8,33.8,32.2,47.5,48.6l27.5-18.5c-11.6-17.4-24.3-34.3-38-50.7h28v-58.1h-31.7v-128.3h-124.1l10.6-19.5h148.4v-34.9h-327.4l7.4-18-63.9-12.7c-20.6,85-51.8,162.1-93.5,231.3l21.7,46.5c12.1-18.5,24.3-37.5,36.4-56v258.2h61.3v-373.9c9.5-22.2,19.5-44.4,28.5-67.6v26.9h124.1l-3.7,19.5h-98.8v128.3h-34.3v60.2h37.5c-12.7,18-29.6,34.9-49.6,51.2l22.7,23.8c28-19,52.3-39.6,71.3-63.4,0,13.2,4.8,23.8,12.7,31.7-25.9,28-57.6,53.9-96.1,78.2l21.7,29c15.8-8.4,31.7-18,46.5-27.5,17.4,11.1,35.4,21.7,53.3,30.6-37.5,9.5-80.3,16.4-128.9,20.6l11.6,35.4c62.3-3.7,119.4-13.2,172.2-29.6l4.2-1.6h1.6c42.2,13.2,96.6,23.2,162.1,31.2l16.9-34.9c-48.1-6.9-88.2-13.7-120.9-22.2v.5ZM1028.9,1003h157.4v18h-157.4v-18ZM1028.9,1046.3h157.4v16.4h-157.4v-16.4ZM1028.9,1088.1h157.4v16.9h-157.4v-16.9ZM1018.8,1142.5v24.3l-31.2-19v-14.8h114.1l-23.2,21.1c22.7,11.6,40.1,22.7,52.8,32.7l25.3-22.2c-9.5-10.6-20.6-21.1-32.2-31.2h99.8v13.7l-24.3,16.9-37-16.9c0,16.4-1.6,27.5-4.2,33.3-2.6,5.8-8.4,9-18.5,9.5-6.9,1.1-15.8,1.6-28.5,1.1-12.1,0-22.2,0-29-1.1-6.9-1.6-9.5-7.4-9.5-17.4v-30.1h-54.9.5ZM1116.5,1298.3c-20.6-8.4-40.1-19.5-59.7-31.2h114.6c-16.9,11.6-35.4,22.7-54.9,31.2h0Z"/>
          </g>
        </g>
      </g>
      <path class="st8" d="M899,615.4v-3.2l-5.8,4.8c2.1,0,3.7-1.1,5.8-1.1v-.5Z"/>
      <path class="st8" d="M958.1,600.6c13.7-3.7,26.9-7.4,40.1-11.1l2.6,25.9h166.9v-50.7h-159.5v-39.6l-50.2,39.6v35.9Z"/>
      <polygon class="st8" points="1111.3 523 1111.3 463.3 1085.9 463.3 1010.9 523 1111.3 523"/>
      <path class="st15" d="M893.2,616.5l5.8-4.8v-97.2h-33.8c-5.8,26.4-12.7,52.8-21.1,79.2l-34.9-18.5c11.6-56.5,18-113.5,18.5-171.6l52.3,11.1c-1.6,18-4.2,37-6.9,55.5h25.3v-103.5h59.1v103.5h35.4v43.8h-35.4v50.2l50.2-39.6v-2.1h2.6l75-59.7h-87.7v-41.7h112.5v-58.1h63.4v29.6l108.8-86.6c-116.7-93.5-168.5-101.4-234-101.4s-129.9,9.5-281,140.5c-121.5,105.1-263,166.4-367,200.7,0,89.3,5.8,250.3,37,432l381.3-303.1-10-40.1c28.5-6.3,56.5-12.1,84-18.5l.5.5Z"/>
      <polygon class="st11" points="1007.8 525.1 1010.9 523 1007.8 523 1007.8 525.1"/>
      <g>
        <g>
          <path class="st16" d="M1236.4,1638.4c-5.3-8.4-6.9-19-3.2-28.5h0c4.8-13.7,0-29-11.1-37.5-8.4-5.8-13.2-15.3-13.2-25.9s-10-26.9-24.3-30.6c-10-2.6-18-9.5-21.7-19h0c-5.3-13.2-19-21.7-33.8-20.1h0c-10,1.1-20.1-2.6-26.9-10h0c-10-10.6-25.9-13.2-38.6-6.3-9,4.8-19.5,4.8-29,0h0c-13.2-6.3-28.5-3.2-38,7.9-6.9,7.4-16.9,11.6-26.9,11.1h0c-14.3-1.1-28,7.4-32.7,21.1-3.7,9.5-11.1,16.9-21.1,20.1h0c-13.7,4.2-23.2,16.9-23.2,31.7s-4.2,20.1-12.7,25.9c-11.6,9-15.3,24.3-10,38,3.7,9.5,3.2,20.1-2.1,29-7.4,12.7-5.8,28.5,4.2,39.1h0c6.9,7.4,10,17.4,8.4,27.5-2.6,14.3,4.8,28.5,18,34.9,9,4.2,15.8,12.7,18,22.7,2.6,14.3,14.8,24.8,29.6,25.9,10,.5,19.5,6.3,24.8,14.8h0c7.9,12.1,22.7,18,36.4,13.7,9.5-3.2,20.1-1.1,28.5,4.8,11.6,8.4,27.5,8.4,39.1-.5,7.9-6.3,18.5-8.4,28.5-5.8,14.3,3.7,29-2.1,36.4-14.8h0c5.3-9,14.3-14.8,24.3-15.8,14.3-1.6,25.9-12.7,28.5-26.9,1.6-10,7.9-18.5,16.9-23.2,12.7-6.9,19.5-21.1,16.9-35.4-2.1-10,.5-20.1,7.4-28,9.5-11.1,10.6-26.9,3.2-39.1l-.5-.5Z"/>
          <circle class="st14" cx="1052.6" cy="1645.2" r="159"/>
          <circle class="st16" cx="1052.6" cy="1645.2" r="145.2"/>
          <circle class="st14" cx="1054.5" cy="1647.3" r="136.3"/>
        </g>
        <g>
          <path class="st3" d="M1132.9,1591.4c-29-7.9-66,3.7-75,6.9-8.4-11.1-21.7-18.5-36.4-18.5-25.3,0-45.9,20.6-45.9,45.9s1.1,10.6,2.6,14.8c-4.8,3.7-43.3,35.4-15.3,61.3,22.7,18,94,17.4,141.5-23.8,0,0-45.4,28-86.6,29.6-41.2,1.6-54.9-10-54.4-26.4,1.1-10,14.3-22.7,21.7-28,8.4,11.1,21.7,18.5,36.4,18.5,25.3,0,45.9-20.6,45.9-45.9s-.5-9.5-2.1-14.3c7.9-3.7,51.2-16.4,73.4-10.6,32.7,13.2,7.9,42.8,7.9,42.8,19-15.3,20.1-43.8-13.2-52.8l-.5.5Z"/>
          <path class="st3" d="M1128.2,1647.3c-10,0-18,7.9-18,18s7.9,18,18,18,18-7.9,18-18-7.9-18-18-18Z"/>
        </g>
        <g class="st12">
          <path class="st13" d="M958.1,1739.2c23.8,23.8,57,38.6,92.9,38.6,72.9,0,132-59.1,132-132s-14.8-69.2-38.6-92.9l-186.4,186.4h0Z"/>
        </g>
      </g>
      <polygon class="st6" points="1111.3 363.5 1111.3 421.6 998.2 421.6 998.2 463.3 1085.9 463.3 1174.1 393.1 1174.1 363.5 1111.3 363.5"/>
      <path class="st6" d="M809.2,635.5l10,40.1,73.9-58.6c-27.5,6.3-55.5,12.1-84,18.5Z"/>
      <path class="st6" d="M993,515.1v-43.8h-35.4v-103.5h-59.1v103.5h-25.3c2.6-19,5.3-37.5,6.9-55.5l-52.3-11.1c0,57.6-6.9,114.6-18.5,171.6l34.9,18.5c7.9-25.9,15.3-52.8,21.1-79.2h33.8v97.2l59.1-47v-50.2h35.4l-.5-.5Z"/>
      <path class="st6" d="M1285,1362.2l-13.7,11.1c2.6,0,5.3.5,7.9,1.1l5.8-12.1h0Z"/>
    </g>
  </g>
</svg>