<?xml version="1.0" encoding="UTF-8"?>
<svg xmlns="http://www.w3.org/2000/svg" version="1.1" xmlns:xlink="http://www.w3.org/1999/xlink" viewBox="0 0 2100 2100">
  <!-- Generator: Adobe Illustrator 29.6.0, SVG Export Plug-In . SVG Version: 2.1.1 Build 207)  -->
  <defs>
    <style>
      .st0 {
        fill: #824846;
      }

      .st1 {
        mix-blend-mode: multiply;
        opacity: .4;
      }

      .st2 {
        fill: #f65119;
      }

      .st3 {
        mask: url(#mask);
      }

      .st4, .st5 {
        mix-blend-mode: soft-light;
      }

      .st6 {
        fill: #de3a15;
      }

      .st7 {
        fill: #ff7757;
      }

      .st8 {
        fill: #f2e1da;
      }

      .st5 {
        opacity: .8;
      }

      .st9 {
        isolation: isolate;
      }

      .st10 {
        fill: #f2d1c7;
      }

      .st11 {
        fill: #ffdf66;
      }

      .st12 {
        fill: #ffe799;
      }

      .st13 {
        fill: #f4ddd3;
      }

      .st14 {
        filter: url(#luminosity-invert);
      }

      .st15 {
        fill: #ffc823;
      }

      .st16 {
        fill: #cc997d;
      }

      .st17 {
        fill: #492121;
      }
    </style>
    <filter id="luminosity-invert" x="800" y="355" width="499" height="1017" color-interpolation-filters="sRGB" filterUnits="userSpaceOnUse">
      <feColorMatrix result="cm" values="-1 0 0 0 1 0 -1 0 0 1 0 0 -1 0 1 0 0 0 1 0"/>
    </filter>
    <mask id="mask" x="800" y="355" width="499" height="1017" maskUnits="userSpaceOnUse">
      <g class="st14">
        <image width="499" height="1017" transform="translate(800 355)" xlink:href="ICON-000-1.png"/>
      </g>
    </mask>
  </defs>
  <g class="st9">
    <g id="_圖層_1">
      <g>
        <g>
          <path class="st16" d="M1049.2,2027c867.2-246.1,777.4-1582.1,777.4-1582.1,0,0-234.4-46.9-410.2-199.2-175.8-152.4-262.8-172.7-367.2-172.7s-191.4,20.3-367.2,172.7c-175.8,152.4-410.2,199.2-410.2,199.2,0,0-89.8,1336,777.4,1582.1Z"/>
          <g>
            <path class="st8" d="M1049.2,1958.3C349.6,1742.8,330.7,729.2,335.8,496.8c83.1-23.4,251.6-81.9,389.3-201.3,167.7-145.3,240.1-156.6,324.1-156.6s156.4,11.2,324.1,156.6c137.8,119.4,306.3,178,389.4,201.3,2.4,103.5.3,362-64.4,634.6-106.5,449.1-324.8,727.2-649.1,826.9Z"/>
            <path class="st0" d="M1049.2,1966.9l-2.4-.8c-299.7-92.3-510.4-337.9-626.4-730-91.6-309.6-95.4-620.3-92.8-739.6v-6.1c.1,0,6-1.7,6-1.7,86.1-24.2,250.9-82.3,386.2-199.6,169.8-147.2,243.7-158.6,329.4-158.6s159.6,11.4,329.5,158.6c135.3,117.3,300.1,175.4,386.2,199.6l5.9,1.7v6.1c2.5,99.8.8,361.7-64.4,636.7-107.2,452-327.5,732.2-654.7,832.8l-2.4.7ZM343.9,503c-4,218.2,15.3,1231.7,705.3,1446.6,319.9-99.4,535.6-375.3,641.1-820.1,63.5-267.8,66.3-523.1,64.3-626.5-88.9-25.5-251.9-84.6-386.7-201.4-165.5-143.5-236.5-154.6-318.7-154.6s-153.1,11.1-318.6,154.6c-134.7,116.7-297.7,175.8-386.6,201.4Z"/>
          </g>
          <path class="st10" d="M1049.2,1923.8C400.3,1714.6,366,768.1,368.3,521.6c93.7-28.6,248.6-88.8,378.4-201.2,159.4-138.2,223.3-148.5,302.5-148.5s143.1,10.3,302.5,148.5c129.8,112.5,284.7,172.7,378.5,201.2,1.3,111.9-4.5,351.6-63.9,602.2-102.5,432.3-310.1,701.3-617,799.9Z"/>
          <g>
            <path class="st13" d="M801.8,1745.8c73.1,64.3,155.7,112.2,247.4,143.2,289.7-97.5,486.4-357.4,584.9-772.9,3.1-13.1,6-26.1,8.8-39l-841.2,668.6Z"/>
            <path class="st13" d="M1049.2,204.8c-73.9,0-129.7,9.5-280.9,140.5-121.4,105.2-262.7,166.4-367.1,200.5.1,89.1,5.7,250.5,36.7,432.1l845.2-671.9c-116.8-93.7-168.3-101.2-234-101.2Z"/>
            <g>
              <g>
                <path class="st0" d="M952,388.3h327.5v34.7h-148.4l-10.7,19.4h123.9v128.5h31.6v58.1h-28c13.8,16.3,26.5,33.2,38.3,50.5l-27.5,18.4c-13.8-16.3-29.6-32.6-47.4-48.5-2,10.7-5.6,18.9-10.7,24.5-7.7,8.2-20.9,12.8-39.8,13.8-10.7.5-26,1-46.4,1s-22.4,0-31.1-.5l-13.3,13.3h173.4v31.6c-19.9,19.4-42.8,36.2-67.8,50.5,32.6,8.2,72.9,15.3,120.9,21.9l-16.8,34.7c-65.8-7.7-119.9-17.9-162.2-31.1h-1.5l-4.1,1.5c-52.5,16.3-109.7,26-171.9,29.6l-11.7-35.2c49-4.1,91.8-10.7,129-20.4-18.4-9.2-36.2-19.4-53.6-30.6-14.8,9.7-30.6,18.9-46.4,27.5l-21.4-29.1c38.3-24,69.9-50,95.9-78-8.2-7.7-12.2-18.4-12.8-31.6-19.4,23.5-43.4,44.4-71.4,63.2l-22.4-24c19.9-16.3,36.7-33.2,49.5-51h-37.7v-60.2h34.2v-128.5h99l3.6-19.4h-124v-27c-9.2,23-18.9,45.4-28.6,67.3v373.9h-61.2v-258.1c-11.7,18.9-24,37.7-36.2,56.1l-21.4-46.4c41.8-68.9,72.9-145.9,93.3-231.1l63.8,12.8-7.1,17.9ZM1101.9,599.5h-114.3v14.8l31.1,18.9v-24.5h55.1v30.1c0,10.2,3.1,15.8,9.7,17.3,7.1,1,16.8,1.5,29.1,1,12.8.5,21.9,0,28.6-1,9.7-.5,15.8-4.1,18.4-9.7,2.6-5.6,4.1-16.8,4.1-33.2l36.7,16.8,24.5-16.8v-13.8h-100c11.7,10.2,22.4,20.4,32.1,31.1l-25.5,22.4c-12.8-10.2-30.1-20.9-53-32.6l23.5-20.9ZM1029,486.7h157.1v-17.9h-157.1v17.9ZM1029,528.6h157.1v-16.3h-157.1v16.3ZM1186.1,554.1h-157.1v16.8h157.1v-16.8ZM1057,733.1c19.4,11.7,39.3,22.4,59.7,31.1,19.9-8.7,38.3-19.4,55.1-31.1h-114.8Z"/>
                <path class="st0" d="M1272.3,938.9v39.8h-72.9c5.6,15.8,10.7,31.1,14.8,45.9l-37.7,10.2c-8.2-16.3-20.4-35.2-36.2-56.1h-39.3c-10.7,12.2-21.9,23.5-34.2,33.2h15.8v36.7h181.6v41.8h-181.6v35.2h160.7v40.8h-70.4v36.7h102v41.8h-102v74c0,17.9-5.6,31.1-17.3,39.3-11.7,7.7-32.1,11.7-60.2,11.7s-44.4-1.5-64.3-5.1l-9.2-47.4c20.4,3.1,38.3,4.6,53,4.6s21.9-2,26.5-6.1c4.6-3.6,6.6-10.2,7.1-19.9v-51h-162.7c21.4,19.9,40.8,39.8,57.6,60.7l-30.6,27.5c-23.5-20.9-51.5-40.3-84.2-59.2l31.1-29.1h-90.8v-41.8h279.5v-36.7h-245.8v-40.8h156.6v-35.2h-175.5v-41.8h175.5v-36.7h37.2l-23.5-19.9,10.7-12.2h-60.7c5.1,14.8,9.2,29.1,12.8,43.4l-38.8,9.2c-7.7-15.3-17.9-32.6-31.1-52.5h-17.9c-19.4,23.5-41.3,43.9-65.8,60.7l-28.1-26c33.2-28.6,60.7-68.9,82.6-121.4l59.2,8.2c-6.6,13.3-13.3,26-20.4,38.8h111.2v36.2c16.3-21.9,30.6-49,42.8-82.1l58.1,8.2c-6.1,12.8-12.2,25-18.9,36.7h143.3Z"/>
              </g>
              <g class="st3">
                <g class="st5">
                  <g>
                    <path class="st17" d="M952,388.3h327.5v34.7h-148.4l-10.7,19.4h123.9v128.5h31.6v58.1h-28c13.8,16.3,26.5,33.2,38.3,50.5l-27.5,18.4c-13.8-16.3-29.6-32.6-47.4-48.5-2,10.7-5.6,18.9-10.7,24.5-7.7,8.2-20.9,12.8-39.8,13.8-10.7.5-26,1-46.4,1s-22.4,0-31.1-.5l-13.3,13.3h173.4v31.6c-19.9,19.4-42.8,36.2-67.8,50.5,32.6,8.2,72.9,15.3,120.9,21.9l-16.8,34.7c-65.8-7.7-119.9-17.9-162.2-31.1h-1.5l-4.1,1.5c-52.5,16.3-109.7,26-171.9,29.6l-11.7-35.2c49-4.1,91.8-10.7,129-20.4-18.4-9.2-36.2-19.4-53.6-30.6-14.8,9.7-30.6,18.9-46.4,27.5l-21.4-29.1c38.3-24,69.9-50,95.9-78-8.2-7.7-12.2-18.4-12.8-31.6-19.4,23.5-43.4,44.4-71.4,63.2l-22.4-24c19.9-16.3,36.7-33.2,49.5-51h-37.7v-60.2h34.2v-128.5h99l3.6-19.4h-124v-27c-9.2,23-18.9,45.4-28.6,67.3v373.9h-61.2v-258.1c-11.7,18.9-24,37.7-36.2,56.1l-21.4-46.4c41.8-68.9,72.9-145.9,93.3-231.1l63.8,12.8-7.1,17.9ZM1101.9,599.5h-114.3v14.8l31.1,18.9v-24.5h55.1v30.1c0,10.2,3.1,15.8,9.7,17.3,7.1,1,16.8,1.5,29.1,1,12.8.5,21.9,0,28.6-1,9.7-.5,15.8-4.1,18.4-9.7,2.6-5.6,4.1-16.8,4.1-33.2l36.7,16.8,24.5-16.8v-13.8h-100c11.7,10.2,22.4,20.4,32.1,31.1l-25.5,22.4c-12.8-10.2-30.1-20.9-53-32.6l23.5-20.9ZM1029,486.7h157.1v-17.9h-157.1v17.9ZM1029,528.6h157.1v-16.3h-157.1v16.3ZM1186.1,554.1h-157.1v16.8h157.1v-16.8ZM1057,733.1c19.4,11.7,39.3,22.4,59.7,31.1,19.9-8.7,38.3-19.4,55.1-31.1h-114.8Z"/>
                    <path class="st17" d="M1272.3,938.9v39.8h-72.9c5.6,15.8,10.7,31.1,14.8,45.9l-37.7,10.2c-8.2-16.3-20.4-35.2-36.2-56.1h-39.3c-10.7,12.2-21.9,23.5-34.2,33.2h15.8v36.7h181.6v41.8h-181.6v35.2h160.7v40.8h-70.4v36.7h102v41.8h-102v74c0,17.9-5.6,31.1-17.3,39.3-11.7,7.7-32.1,11.7-60.2,11.7s-44.4-1.5-64.3-5.1l-9.2-47.4c20.4,3.1,38.3,4.6,53,4.6s21.9-2,26.5-6.1c4.6-3.6,6.6-10.2,7.1-19.9v-51h-162.7c21.4,19.9,40.8,39.8,57.6,60.7l-30.6,27.5c-23.5-20.9-51.5-40.3-84.2-59.2l31.1-29.1h-90.8v-41.8h279.5v-36.7h-245.8v-40.8h156.6v-35.2h-175.5v-41.8h175.5v-36.7h37.2l-23.5-19.9,10.7-12.2h-60.7c5.1,14.8,9.2,29.1,12.8,43.4l-38.8,9.2c-7.7-15.3-17.9-32.6-31.1-52.5h-17.9c-19.4,23.5-41.3,43.9-65.8,60.7l-28.1-26c33.2-28.6,60.7-68.9,82.6-121.4l59.2,8.2c-6.6,13.3-13.3,26-20.4,38.8h111.2v36.2c16.3-21.9,30.6-49,42.8-82.1l58.1,8.2c-6.1,12.8-12.2,25-18.9,36.7h143.3Z"/>
                  </g>
                </g>
              </g>
            </g>
            <g class="st4">
              <path class="st13" d="M920.8,594v-130.7c9.7-21.9,19.4-44.4,28.6-67.3v27h124l-3.6,19.4h-99v111.9l85-67.5h-26.8v-17.9h49.3l48.8-38.8,3.9-7.1h5l43.6-34.7h-227.7l7.1-17.9-63.8-12.8c-20.4,85.2-51.5,162.2-93.3,231.1l21.4,46.4c12.2-18.4,24.5-37.2,36.2-56.1v63.6l61.2-48.7Z"/>
              <polygon class="st13" points="936.7 570.9 936.7 581.5 949.9 570.9 936.7 570.9"/>
            </g>
          </g>
          <g>
            <g>
              <path class="st2" d="M416.3,1586.7c-113.3,65.1-231.5,109-339.8,126.6,15.4,46.7,37.8,90.1,67.2,129.3-41.8,59.5-89.5,119.4-142.1,179.2,132-26.8,276.2-77.3,418.5-145.9,11.4-49.6,22.7-99.2,34.1-148.7-14.6-46.4-23.3-94.3-37.9-140.5Z"/>
              <path class="st6" d="M283.3,1714.2c.1.6,25.9,101,137.3,160.2,27-111.1,54-221.6,81.2-331.7-47.1-43.6-93.9-85.8-140.4-126.4-26.1,98.8-52.2,198.1-78.1,297.9Z"/>
            </g>
            <g>
              <path class="st2" d="M1683.7,1586.7c113.3,65.1,231.5,109,339.8,126.6-15.4,46.7-37.8,90.1-67.2,129.3,41.8,59.5,89.5,119.4,142.1,179.2-132-26.8-276.2-77.3-418.5-145.9-11.4-49.6-22.7-99.2-34.1-148.7,14.6-46.4,23.3-94.3,37.9-140.5Z"/>
              <path class="st6" d="M1816.7,1714.2c-.1.6-25.9,101-137.3,160.2-27-111.1-54-221.6-81.2-331.7,47.1-43.6,93.9-85.8,140.4-126.4,26.1,98.8,52.2,198.1,78.1,297.9Z"/>
            </g>
            <path class="st7" d="M1818.8,1714.9c-438.8,98.2-1096.5,97.9-1535.5-.7,25.9-99.8,52-199.1,78.1-297.9,393.1,118.1,986.2,118.3,1379.3.7,26.1,98.8,52.2,198.2,78.1,298Z"/>
          </g>
        </g>
        <g>
          <g>
            <path class="st15" d="M1236.6,1637.6c-5.5-8.6-6.7-19.2-3.2-28.7h0c5-13.6.4-28.9-11.3-37.4-8.2-6-13.2-15.5-13.3-25.7-.2-14.5-10.1-27.1-24.1-30.8-9.8-2.6-17.9-9.7-21.7-19.1h0c-5.5-13.4-19.2-21.6-33.6-20h0c-10.1,1.1-20.2-2.6-27.1-10h0c-9.9-10.5-25.7-13.2-38.5-6.5-9,4.7-19.7,4.9-28.9.5h0c-13.1-6.2-28.7-3-38.3,7.8-6.7,7.6-16.6,11.7-26.8,10.9h0c-14.4-1.1-27.9,7.5-32.9,21.1-3.5,9.6-11.3,16.9-21,19.8h0c-13.9,4.2-23.3,17.1-23,31.6.2,10.2-4.4,19.8-12.4,26.1-11.4,8.9-15.5,24.3-10,37.8,3.8,9.4,3,20.1-2.2,28.8-7.4,12.4-5.7,28.3,4.3,38.8h0c7,7.4,10.1,17.6,8.4,27.7-2.4,14.3,4.9,28.4,18,34.7,9.2,4.4,15.8,12.8,17.8,22.8,2.9,14.2,14.9,24.7,29.3,25.8,10.1.8,19.3,6.2,24.8,14.8h0c7.8,12.2,22.8,17.7,36.7,13.5,9.7-3,20.3-1.2,28.5,4.8,11.7,8.5,27.7,8.3,39.1-.7,8-6.3,18.5-8.4,28.3-5.8,14,3.7,28.8-2.3,36.2-14.7h0c5.2-8.7,14.2-14.5,24.3-15.6,14.4-1.6,26-12.5,28.4-26.8,1.7-10,8-18.7,17-23.4,12.9-6.7,19.7-21.1,16.8-35.3-2.1-10,.7-20.3,7.4-27.9,9.6-10.9,10.8-26.8,2.9-39Z"/>
            <circle class="st12" cx="1052.7" cy="1644.5" r="158.9"/>
            <circle class="st15" cx="1052.7" cy="1644.5" r="145.3"/>
            <circle class="st12" cx="1052.7" cy="1644.5" r="136.2" transform="translate(-854.5 1226) rotate(-45)"/>
          </g>
          <g>
            <path class="st6" d="M1133,1590.8c-28.9-7.9-66.1,3.8-75.1,6.9-8.4-11.1-21.7-18.3-36.7-18.3-25.3,0-45.8,20.5-45.8,45.8s.9,10.3,2.5,15c-4.8,3.8-43.1,35.4-15.5,61,22.5,17.8,93.8,17.4,141.4-23.6,0,0-45.4,28-86.5,29.4-41.1,1.5-54.9-9.8-54.2-26.5,1.1-9.8,14-22.7,21.4-27.8,8.4,11.1,21.7,18.3,36.6,18.3,25.3,0,45.8-20.5,45.8-45.8s-.8-9.7-2.2-14.1c8-3.7,51.2-16.1,73.2-10.5,32.7,13.1,8,42.9,8,42.9,19.3-15.3,20-43.6-13.1-52.7Z"/>
            <path class="st6" d="M1128.1,1646.4c-9.9,0-17.8,8-17.8,17.8s8,17.9,17.8,17.9,17.9-8,17.9-17.9-8-17.8-17.9-17.8Z"/>
          </g>
          <g class="st1">
            <path class="st11" d="M958.1,1738.1c23.9,23.9,56.8,38.7,93.2,38.7,72.7,0,131.8-59.1,131.8-131.8s-14.8-69.3-38.7-93.2l-186.4,186.4Z"/>
          </g>
        </g>
      </g>
    </g>
  </g>
</svg>