<?xml version="1.0" encoding="UTF-8"?>
<svg id="_圖層_1" data-name="圖層_1" xmlns="http://www.w3.org/2000/svg" version="1.1" viewBox="0 0 2100 2100">
  <!-- Generator: Adobe Illustrator 29.6.0, SVG Export Plug-In . SVG Version: 2.1.1 Build 207)  -->
  <defs>
    <style>
      .st0 {
        fill: #824846;
      }

      .st1 {
        fill: #f65119;
      }

      .st2 {
        fill: #de3a15;
      }

      .st3 {
        fill: #ff7757;
      }

      .st4 {
        fill: #f2e1da;
      }

      .st5 {
        fill: none;
      }

      .st6, .st7 {
        isolation: isolate;
      }

      .st8 {
        opacity: .8;
      }

      .st8, .st7 {
        mix-blend-mode: soft-light;
      }

      .st9 {
        fill: #f2d1c7;
      }

      .st10, .st7 {
        fill: #f7cbb5;
      }

      .st11 {
        mix-blend-mode: multiply;
        opacity: .4;
      }

      .st12 {
        fill: #ffdf66;
      }

      .st13 {
        fill: #ffe799;
      }

      .st14 {
        fill: #f4ddd3;
      }

      .st15 {
        fill: #ffc823;
      }

      .st16 {
        fill: #cc997d;
      }

      .st17 {
        fill: #492121;
      }
    </style>
  </defs>
  <g class="st6">
    <g id="objects">
      <g>
        <path class="st16" d="M1048.9,2027c867.1-246.1,777.4-1582.2,777.4-1582.2,0,0-234.5-47-410.3-199.1-175.9-152.6-263-172.7-367-172.7s-191.7,20.1-367,172.7c-175.9,152.6-410.3,199.1-410.3,199.1,0,0-89.8,1336.1,777.4,1582.2Z"/>
        <g>
          <path class="st4" d="M1048.9,1958.3C349.2,1742.9,330.2,728.9,335.5,496.5c82.9-23.2,251.9-81.9,389.2-201.2,167.9-145.2,240.3-156.8,324.3-156.8s156.3,11.1,324.3,156.8c137.8,119.4,306.3,178,389.7,201.2,2.6,103.5,0,362.3-64.4,634.8-106.7,449.4-324.8,727.2-649,827h-.5Z"/>
          <path class="st0" d="M1048.9,1966.8h-2.6c-300-92.9-510.7-338.5-626.3-730.9-91.4-309.5-95.6-620.5-92.9-739.9v-6.3l5.8-1.6c86.1-24.3,250.9-82.4,386-199.6,170-147.3,243.5-158.4,329.5-158.4s159.5,11.6,329.5,158.4c135.2,117.2,300,175.3,386,199.6l5.8,1.6v6.3c2.6,99.8.5,361.8-64.4,636.9-107.2,452.1-327.4,732.5-654.9,832.8h-2.6l1.1,1.1ZM343.9,502.4c-4.2,218.1,15.3,1232.1,705.5,1447,320-99.3,535.5-375.5,641.1-820.1,63.4-267.7,66.5-523.4,64.4-626.9-88.7-25.3-251.9-84.5-386.6-201.2-165.8-143.6-236.6-154.7-319-154.7s-153.2,11.1-318.4,154.7c-134.7,116.7-297.9,175.9-386.6,201.2h-.5Z"/>
        </g>
        <path class="st9" d="M1048.9,1923.5C399.9,1714.4,365.6,767.5,367.7,520.8c94-28.5,248.7-88.7,378.7-201.2,159.5-138.4,223.4-148.4,302.6-148.4s143.1,10.6,302.6,148.4c129.9,112.5,284.6,172.7,378.7,201.2,1.1,112-4.2,351.7-63.9,602.6-102.5,432.5-310,701.3-617.4,800.1Z"/>
        <path class="st14" d="M1285,1361.1l-13.7,11.1-470,373.4c73.4,64.4,155.8,112.5,247.7,143.1,289.9-97.7,486.4-357.5,585.1-773.1,3.2-13.2,5.8-25.9,9-39.1l-358.1,284.6h0Z"/>
        <g>
          <g>
            <path class="st1" d="M416.3,1586.6c-113.5,65-231.3,108.8-340.1,126.7,15.3,46.5,38,90.3,67.1,129.4-41.7,59.7-89.8,119.4-142.1,179,132-26.9,276.2-77.1,418.8-145.8,11.6-49.6,22.7-99.3,34.3-148.9-14.8-46.5-23.2-94.5-38-140.5h0Z"/>
            <path class="st2" d="M283.2,1713.8c0,.5,25.9,100.9,137.3,160,26.9-110.9,53.9-221.8,81.3-331.7-47-43.8-94-85.6-140.5-126.2-26.4,98.8-52.3,198-78.2,297.9Z"/>
          </g>
          <g>
            <path class="st1" d="M1683.7,1586.6c113.5,65,231.3,108.8,340.1,126.7-15.3,46.5-38,90.3-67.1,129.4,41.7,59.7,89.8,119.4,142.1,179-132-26.9-276.2-77.1-418.8-145.8-11.6-49.6-22.7-99.3-34.3-148.9,14.8-46.5,23.2-94.5,38-140.5h0Z"/>
            <path class="st2" d="M1816.8,1713.8c0,.5-25.9,100.9-137.3,160-26.9-110.9-53.9-221.8-81.3-331.7,47-43.8,94-85.6,140.5-126.2,26.4,98.8,52.3,198,78.2,297.9Z"/>
          </g>
          <path class="st3" d="M1818.9,1714.9c-438.9,98.2-1096.9,97.7-1535.7-.5,25.9-99.8,51.8-199.1,78.2-297.9,393.4,118.3,986.5,118.3,1379.4.5,26.4,98.8,52.3,198,78.2,297.9h0Z"/>
        </g>
        <g>
          <g>
            <path class="st0" d="M958.1,648.1v188.5h-59.1v-166.9c-23.8,7.9-49.1,16.4-74.5,23.8l-15.3-59.7c30.6-6.9,60.7-13.2,89.8-20.1v-100.3h-33.8c-5.8,26.4-12.7,52.8-21.1,79.2l-34.9-18.5c11.6-56.5,18-113.5,18.5-171.6l52.3,11.1c-1.6,18-4.2,37-6.9,55.5h25.3v-103.5h59.1v103.5h35.4v43.8h-35.4v85.6c13.7-3.7,26.9-7.4,40.1-11.1l2.6,25.9h166.9v-50.7h-159.5v-41.7h103v-59.7h-112.5v-41.7h112.5v-58.1h63.4v58.1h114.6v41.7h-114.6v59.7h105.1v41.7h-48.6v50.7h58.1v41.7h-58.1v129.4c0,18-5.8,31.2-16.9,39.1-11.6,7.9-31.2,12.1-58.1,12.1s-43.3-1.6-62.3-5.3l-9.5-49.6c20.1,3.2,37,4.8,51.8,4.8s21.1-2.1,25.3-5.8,6.3-9.5,6.9-19v-106.7h-171.6v-23.2l-38,15.3v2.1ZM1059.5,659.7c23.8,24.8,44.9,50.7,62.8,76l-32.7,24.3c-21.1-22.2-47-42.8-77.1-63.9l47-37v.5Z"/>
            <path class="st0" d="M951.8,921.1h327.4v34.9h-148.4l-10.6,19.5h124.1v128.3h31.7v58.1h-28c13.7,16.4,26.4,33.3,38,50.7l-27.5,18.5c-13.7-16.4-29.6-32.7-47.5-48.6-2.1,10.6-5.8,19-10.6,24.3-7.4,7.9-21.1,12.7-39.6,13.7-10.6,0-25.9,1.1-46.5,1.1h-31.2l-13.2,13.2h173.2v31.7c-20.1,19.5-42.8,36.4-67.6,50.7,32.7,7.9,72.9,15.3,120.9,22.2l-16.9,34.9c-66-7.4-119.9-18-162.1-31.2h-1.6l-4.2,1.6c-52.8,16.4-109.8,25.9-172.2,29.6l-11.6-35.4c49.1-4.2,91.9-10.6,128.9-20.6-18.5-9-36.4-19.5-53.3-30.6-14.8,9.5-30.6,19-46.5,27.5l-21.7-29c38-23.8,69.7-50.2,96.1-78.2-7.9-7.4-12.1-18.5-12.7-31.7-19.5,23.2-43.3,44.4-71.3,63.4l-22.7-23.8c20.1-16.4,37-33.3,49.6-51.2h-37.5v-60.2h34.3v-128.3h98.8l3.7-19.5h-124.1v-26.9c-9,22.7-19,45.4-28.5,67.6v373.9h-61.3v-258.2c-11.6,19-23.8,37.5-36.4,56l-21.7-46.5c41.7-68.7,72.9-145.8,93.5-231.3l63.9,12.7-7.4,18v-.5ZM1101.8,1132.4h-114.1v14.8l31.2,19v-24.3h54.9v30.1c0,10,3.2,15.8,9.5,17.4,7.4,1.1,16.9,1.6,29,1.1,12.7,0,22.2,0,28.5-1.1,9.5,0,15.8-4.2,18.5-9.5,2.6-5.8,4.2-16.9,4.2-33.3l37,16.9,24.3-16.9v-13.7h-99.8c11.6,10,22.2,20.6,32.2,31.2l-25.3,22.2c-12.7-10-30.1-21.1-52.8-32.7l23.2-21.1h-.5ZM1028.9,1019.4h157.4v-18h-157.4v18ZM1028.9,1061.6h157.4v-16.4h-157.4v16.4ZM1186.3,1087h-157.4v16.9h157.4v-16.9ZM1056.9,1266c19.5,11.6,39.1,22.7,59.7,31.2,20.1-8.4,38-19.5,54.9-31.2h-114.6Z"/>
          </g>
          <g class="st8">
            <g>
              <path class="st17" d="M958.1,648.1v188.5h-59.1v-166.9c-23.8,7.9-49.1,16.4-74.5,23.8l-15.3-59.7c30.6-6.9,60.7-13.2,89.8-20.1v-100.3h-33.8c-5.8,26.4-12.7,52.8-21.1,79.2l-34.9-18.5c11.6-56.5,18-113.5,18.5-171.6l52.3,11.1c-1.6,18-4.2,37-6.9,55.5h25.3v-103.5h59.1v103.5h35.4v43.8h-35.4v85.6c13.7-3.7,26.9-7.4,40.1-11.1l2.6,25.9h166.9v-50.7h-159.5v-41.7h103v-59.7h-112.5v-41.7h112.5v-58.1h63.4v58.1h114.6v41.7h-114.6v59.7h105.1v41.7h-48.6v50.7h58.1v41.7h-58.1v129.4c0,18-5.8,31.2-16.9,39.1-11.6,7.9-31.2,12.1-58.1,12.1s-43.3-1.6-62.3-5.3l-9.5-49.6c20.1,3.2,37,4.8,51.8,4.8s21.1-2.1,25.3-5.8,6.3-9.5,6.9-19v-106.7h-171.6v-23.2l-38,15.3v2.1ZM1059.5,659.7c23.8,24.8,44.9,50.7,62.8,76l-32.7,24.3c-21.1-22.2-47-42.8-77.1-63.9l47-37v.5Z"/>
              <path class="st17" d="M951.8,921.1h327.4v34.9h-148.4l-10.6,19.5h124.1v128.3h31.7v58.1h-28c13.7,16.4,26.4,33.3,38,50.7l-27.5,18.5c-13.7-16.4-29.6-32.7-47.5-48.6-2.1,10.6-5.8,19-10.6,24.3-7.4,7.9-21.1,12.7-39.6,13.7-10.6,0-25.9,1.1-46.5,1.1h-31.2l-13.2,13.2h173.2v31.7c-20.1,19.5-42.8,36.4-67.6,50.7,32.7,7.9,72.9,15.3,120.9,22.2l-16.9,34.9c-66-7.4-119.9-18-162.1-31.2h-1.6l-4.2,1.6c-52.8,16.4-109.8,25.9-172.2,29.6l-11.6-35.4c49.1-4.2,91.9-10.6,128.9-20.6-18.5-9-36.4-19.5-53.3-30.6-14.8,9.5-30.6,19-46.5,27.5l-21.7-29c38-23.8,69.7-50.2,96.1-78.2-7.9-7.4-12.1-18.5-12.7-31.7-19.5,23.2-43.3,44.4-71.3,63.4l-22.7-23.8c20.1-16.4,37-33.3,49.6-51.2h-37.5v-60.2h34.3v-128.3h98.8l3.7-19.5h-124.1v-26.9c-9,22.7-19,45.4-28.5,67.6v373.9h-61.3v-258.2c-11.6,19-23.8,37.5-36.4,56l-21.7-46.5c41.7-68.7,72.9-145.8,93.5-231.3l63.9,12.7-7.4,18v-.5ZM1101.8,1132.4h-114.1v14.8l31.2,19v-24.3h54.9v30.1c0,10,3.2,15.8,9.5,17.4,7.4,1.1,16.9,1.6,29,1.1,12.7,0,22.2,0,28.5-1.1,9.5,0,15.8-4.2,18.5-9.5,2.6-5.8,4.2-16.9,4.2-33.3l37,16.9,24.3-16.9v-13.7h-99.8c11.6,10,22.2,20.6,32.2,31.2l-25.3,22.2c-12.7-10-30.1-21.1-52.8-32.7l23.2-21.1h-.5ZM1028.9,1019.4h157.4v-18h-157.4v18ZM1028.9,1061.6h157.4v-16.4h-157.4v16.4ZM1186.3,1087h-157.4v16.9h157.4v-16.9ZM1056.9,1266c19.5,11.6,39.1,22.7,59.7,31.2,20.1-8.4,38-19.5,54.9-31.2h-114.6Z"/>
            </g>
          </g>
        </g>
      </g>
      <path class="st5" d="M899,614.3v-3.2l-5.8,4.8c2.1,0,3.7-1.1,5.8-1.1v-.5Z"/>
      <path class="st5" d="M958.1,599.5c13.7-3.7,26.9-7.4,40.1-11.1l2.6,25.9h166.9v-50.7h-159.5v-39.6l-50.2,39.6v35.9Z"/>
      <polygon class="st5" points="1111.3 521.9 1111.3 462.2 1085.9 462.2 1010.9 521.9 1111.3 521.9"/>
      <path class="st14" d="M893.2,615.4l5.8-4.8v-97.2h-33.8c-5.8,26.4-12.7,52.8-21.1,79.2l-34.9-18.5c11.6-56.5,18-113.5,18.5-171.6l52.3,11.1c-1.6,18-4.2,37-6.9,55.5h25.3v-103.5h59.1v103.5h35.4v43.8h-35.4v50.2l50.2-39.6v-2.1h2.6l75-59.7h-87.7v-41.7h112.5v-58.1h63.4v29.6l108.8-86.6c-116.7-93.5-168.5-101.4-234-101.4s-129.9,9.5-281,140.5c-121.5,105.1-263,166.4-367,200.7,0,89.3,5.8,250.3,37,432l381.3-303.1-10-40.1c28.5-6.3,56.5-12.1,84-18.5l.5.5Z"/>
      <polygon class="st10" points="1007.8 524 1010.9 521.9 1007.8 521.9 1007.8 524"/>
      <g>
        <g>
          <path class="st15" d="M1236.4,1637.3c-5.3-8.4-6.9-19-3.2-28.5h0c4.8-13.7,0-29-11.1-37.5-8.4-5.8-13.2-15.3-13.2-25.9s-10-26.9-24.3-30.6c-10-2.6-18-9.5-21.7-19h0c-5.3-13.2-19-21.7-33.8-20.1h0c-10,1.1-20.1-2.6-26.9-10h0c-10-10.6-25.9-13.2-38.6-6.3-9,4.8-19.5,4.8-29,0h0c-13.2-6.3-28.5-3.2-38,7.9-6.9,7.4-16.9,11.6-26.9,11.1h0c-14.3-1.1-28,7.4-32.7,21.1-3.7,9.5-11.1,16.9-21.1,20.1h0c-13.7,4.2-23.2,16.9-23.2,31.7s-4.2,20.1-12.7,25.9c-11.6,9-15.3,24.3-10,38,3.7,9.5,3.2,20.1-2.1,29-7.4,12.7-5.8,28.5,4.2,39.1h0c6.9,7.4,10,17.4,8.4,27.5-2.6,14.3,4.8,28.5,18,34.9,9,4.2,15.8,12.7,18,22.7,2.6,14.3,14.8,24.8,29.6,25.9,10,.5,19.5,6.3,24.8,14.8h0c7.9,12.1,22.7,18,36.4,13.7,9.5-3.2,20.1-1.1,28.5,4.8,11.6,8.4,27.5,8.4,39.1-.5,7.9-6.3,18.5-8.4,28.5-5.8,14.3,3.7,29-2.1,36.4-14.8h0c5.3-9,14.3-14.8,24.3-15.8,14.3-1.6,25.9-12.7,28.5-26.9,1.6-10,7.9-18.5,16.9-23.2,12.7-6.9,19.5-21.1,16.9-35.4-2.1-10,.5-20.1,7.4-28,9.5-11.1,10.6-26.9,3.2-39.1l-.5-.5Z"/>
          <circle class="st13" cx="1052.6" cy="1644.1" r="159"/>
          <circle class="st15" cx="1052.6" cy="1644.1" r="145.2"/>
          <circle class="st13" cx="1054.5" cy="1646.2" r="136.3"/>
        </g>
        <g>
          <path class="st2" d="M1132.9,1590.3c-29-7.9-66,3.7-75,6.9-8.4-11.1-21.7-18.5-36.4-18.5-25.3,0-45.9,20.6-45.9,45.9s1.1,10.6,2.6,14.8c-4.8,3.7-43.3,35.4-15.3,61.3,22.7,18,94,17.4,141.5-23.8,0,0-45.4,28-86.6,29.6-41.2,1.6-54.9-10-54.4-26.4,1.1-10,14.3-22.7,21.7-28,8.4,11.1,21.7,18.5,36.4,18.5,25.3,0,45.9-20.6,45.9-45.9s-.5-9.5-2.1-14.3c7.9-3.7,51.2-16.4,73.4-10.6,32.7,13.2,7.9,42.8,7.9,42.8,19-15.3,20.1-43.8-13.2-52.8l-.5.5Z"/>
          <path class="st2" d="M1128.2,1646.2c-10,0-18,7.9-18,18s7.9,18,18,18,18-7.9,18-18-7.9-18-18-18Z"/>
        </g>
        <g class="st11">
          <path class="st12" d="M958.1,1738.1c23.8,23.8,57,38.6,92.9,38.6,72.9,0,132-59.1,132-132s-14.8-69.2-38.6-92.9l-186.4,186.4h0Z"/>
        </g>
      </g>
      <polygon class="st7" points="1111.3 362.4 1111.3 420.5 998.2 420.5 998.2 462.2 1085.9 462.2 1174.1 392 1174.1 362.4 1111.3 362.4"/>
      <path class="st7" d="M809.2,634.4l10,40.1,73.9-58.6c-27.5,6.3-55.5,12.1-84,18.5Z"/>
      <path class="st7" d="M993,514v-43.8h-35.4v-103.5h-59.1v103.5h-25.3c2.6-19,5.3-37.5,6.9-55.5l-52.3-11.1c0,57.6-6.9,114.6-18.5,171.6l34.9,18.5c7.9-25.9,15.3-52.8,21.1-79.2h33.8v97.2l59.1-47v-50.2h35.4l-.5-.5Z"/>
      <path class="st7" d="M1285,1361.1l-13.7,11.1c2.6,0,5.3.5,7.9,1.1l5.8-12.1h0Z"/>
    </g>
  </g>
</svg>