<?xml version="1.0" encoding="UTF-8"?>
<svg xmlns="http://www.w3.org/2000/svg" version="1.1" xmlns:xlink="http://www.w3.org/1999/xlink" viewBox="0 0 2100 2100">
  <!-- Generator: Adobe Illustrator 29.6.0, SVG Export Plug-In . SVG Version: 2.1.1 Build 207)  -->
  <defs>
    <style>
      .st0, .st1 {
        fill: #824846;
      }

      .st2 {
        mix-blend-mode: multiply;
        opacity: .4;
      }

      .st3, .st4 {
        mix-blend-mode: soft-light;
      }

      .st3, .st5 {
        fill: #f7cbb5;
      }

      .st6 {
        fill: #f65119;
      }

      .st7 {
        mask: url(#mask);
      }

      .st8 {
        fill: #de3a15;
      }

      .st9 {
        fill: #ff7757;
      }

      .st10 {
        fill: #f2e1da;
      }

      .st11 {
        fill: none;
      }

      .st4 {
        opacity: .8;
      }

      .st12 {
        isolation: isolate;
      }

      .st1 {
        font-family: ARFangXinShuH7B5Std-HV-B5pc-H, 'AR FangXinShuH7B5Std';
        font-size: 96.6px;
        letter-spacing: 0em;
      }

      .st13 {
        fill: #f2d1c7;
      }

      .st14 {
        fill: #ffdf66;
      }

      .st15 {
        fill: #ffe799;
      }

      .st16 {
        fill: #f4ddd3;
      }

      .st17 {
        filter: url(#luminosity-invert);
      }

      .st18 {
        fill: #ffc823;
      }

      .st19 {
        fill: #cc997d;
      }

      .st20 {
        fill: #492121;
      }
    </style>
    <filter id="luminosity-invert" x="1641.9" y="984.3" width="97.9" height="195.6" color-interpolation-filters="sRGB" filterUnits="userSpaceOnUse">
      <feColorMatrix result="cm" values="-1 0 0 0 1 0 -1 0 0 1 0 0 -1 0 1 0 0 0 1 0"/>
    </filter>
    <mask id="mask" x="1641.9" y="984.3" width="97.9" height="195.6" maskUnits="userSpaceOnUse">
      <g class="st17">
        <image width="408" height="815" transform="translate(1641.9 984.3) scale(.2)" xlink:href="特優-1.png"/>
      </g>
    </mask>
  </defs>
  <g class="st12">
    <g id="objects">
      <g>
        <path class="st19" d="M1690.8,1301.7c164.2-46.6,147.2-299.6,147.2-299.6,0,0-44.4-8.9-77.7-37.7-33.3-28.9-49.8-32.7-69.5-32.7s-36.3,3.8-69.5,32.7c-33.3,28.9-77.7,37.7-77.7,37.7,0,0-17,253,147.2,299.6Z"/>
        <g>
          <path class="st10" d="M1690.8,1288.7c-132.5-40.8-136.1-232.8-135.1-276.8,15.7-4.4,47.7-15.5,73.7-38.1,31.8-27.5,45.5-29.7,61.4-29.7s29.6,2.1,61.4,29.7c26.1,22.6,58,33.7,73.8,38.1.5,19.6,0,68.6-12.2,120.2-20.2,85.1-61.5,137.7-122.9,156.6Z"/>
          <path class="st0" d="M1690.8,1290.3h-.5c-56.8-17.6-96.7-64.1-118.6-138.4-17.3-58.6-18.1-117.5-17.6-140.1v-1.2s1.1-.3,1.1-.3c16.3-4.6,47.5-15.6,73.1-37.8,32.2-27.9,46.1-30,62.4-30s30.2,2.2,62.4,30c25.6,22.2,56.8,33.2,73.1,37.8l1.1.3v1.2c.5,18.9.1,68.5-12.2,120.6-20.3,85.6-62,138.7-124,157.7h-.5ZM1557.3,1013c-.8,41.3,2.9,233.3,133.6,274,60.6-18.8,101.4-71.1,121.4-155.3,12-50.7,12.6-99.1,12.2-118.7-16.8-4.8-47.7-16-73.2-38.1-31.4-27.2-44.8-29.3-60.4-29.3s-29,2.1-60.3,29.3c-25.5,22.1-56.4,33.3-73.2,38.1Z"/>
        </g>
        <path class="st13" d="M1690.8,1282.1c-122.9-39.6-129.4-218.9-129-265.6,17.8-5.4,47.1-16.8,71.7-38.1,30.2-26.2,42.3-28.1,57.3-28.1s27.1,2,57.3,28.1c24.6,21.3,53.9,32.7,71.7,38.1.2,21.2-.8,66.6-12.1,114.1-19.4,81.9-58.7,132.8-116.9,151.5Z"/>
        <path class="st16" d="M1735.5,1175.6l-2.6,2.1-89,70.7c13.9,12.2,29.5,21.3,46.9,27.1,54.9-18.5,92.1-67.7,110.8-146.4.6-2.5,1.1-4.9,1.7-7.4l-67.8,53.9Z"/>
        <g>
          <g>
            <path class="st6" d="M1571,1218.3c-21.5,12.3-43.8,20.6-64.4,24,2.9,8.8,7.2,17.1,12.7,24.5-7.9,11.3-17,22.6-26.9,33.9,25-5.1,52.3-14.6,79.3-27.6,2.2-9.4,4.3-18.8,6.5-28.2-2.8-8.8-4.4-17.9-7.2-26.6Z"/>
            <path class="st8" d="M1545.8,1242.4c0,.1,4.9,19.1,26,30.3,5.1-21,10.2-42,15.4-62.8-8.9-8.3-17.8-16.2-26.6-23.9-5,18.7-9.9,37.5-14.8,56.4Z"/>
          </g>
          <g>
            <path class="st6" d="M1811,1218.3c21.5,12.3,43.8,20.6,64.4,24-2.9,8.8-7.2,17.1-12.7,24.5,7.9,11.3,17,22.6,26.9,33.9-25-5.1-52.3-14.6-79.3-27.6-2.2-9.4-4.3-18.8-6.5-28.2,2.8-8.8,4.4-17.9,7.2-26.6Z"/>
            <path class="st8" d="M1836.2,1242.4c0,.1-4.9,19.1-26,30.3-5.1-21-10.2-42-15.4-62.8,8.9-8.3,17.8-16.2,26.6-23.9,5,18.7,9.9,37.5,14.8,56.4Z"/>
          </g>
          <path class="st9" d="M1836.6,1242.6c-83.1,18.6-207.7,18.5-290.8-.1,4.9-18.9,9.8-37.7,14.8-56.4,74.5,22.4,186.8,22.4,261.2.1,5,18.7,9.9,37.5,14.8,56.4Z"/>
        </g>
        <g>
          <text class="st1" transform="translate(1642.9 1067.7)"><tspan x="0" y="0">特</tspan><tspan x="0" y="101">優</tspan></text>
          <g class="st7">
            <g class="st4">
              <path class="st20" d="M1645.4,1038l2.9,11.3c4.8-1.4,9.6-3,14.1-4.5v31.6h11.2v-35.7l7.2-2.9v4.4h32.5v20.2c0,1.7-.5,2.9-1.3,3.6-.9.7-2.4,1.1-4.8,1.1s-6-.3-9.8-.9l1.8,9.4c3.6.7,7.5,1,11.8,1s8.8-.8,11-2.3c2.1-1.5,3.2-4.1,3.2-7.4v-24.5h11v-7.9h-11v-9.6h9.2v-7.9h-19.9v-11.3h21.7v-7.9h-21.7v-11h-12v11h-21.3v7.9h21.3v11.3h-19.5v7.9h30.2v9.6h-31.6l-.5-4.9c-2.5.7-5,1.4-7.6,2.1v-16.2h6.7v-8.3h-6.7v-19.6h-11.2v19.6h-4.8c.5-3.6,1-7.1,1.3-10.5l-9.9-2.1c0,10.9-1.3,21.7-3.5,32.5l6.6,3.5c1.5-4.9,2.9-10,4-15h6.4v19c-5.5,1.3-11.2,2.5-17,3.8ZM1692.8,1042.8l-8.9,7c5.7,4,10.6,7.9,14.6,12.1l6.2-4.6c-3.4-4.8-7.3-9.7-11.9-14.4ZM1714.7,1167.2c4.7-2.7,9.1-5.9,12.8-9.6v-6h-32.8l2.5-2.5c1.6,0,3.6,0,5.9,0,3.9,0,6.8,0,8.8-.2,3.6-.2,6.1-1.1,7.5-2.6,1-1.1,1.6-2.6,2-4.6,3.4,3,6.4,6.1,9,9.2l5.2-3.5c-2.2-3.3-4.6-6.5-7.2-9.6h5.3v-11h-6v-24.3h-23.5l2-3.7h28.1v-6.6h-62l1.4-3.4-12.1-2.4c-3.9,16.1-9.8,30.7-17.7,43.8l4.1,8.8c2.3-3.5,4.6-7.1,6.9-10.6v48.9h11.6v-70.8c1.8-4.2,3.7-8.4,5.4-12.8v5.1h23.5l-.7,3.7h-18.7v24.3h-6.5v11.4h7.1c-2.4,3.4-5.6,6.6-9.4,9.7l4.3,4.5c5.3-3.6,9.9-7.5,13.5-12,0,2.5.9,4.5,2.4,6-4.9,5.3-10.9,10.2-18.2,14.8l4.1,5.5c3-1.6,6-3.4,8.8-5.2,3.3,2.1,6.7,4.1,10.1,5.8-7.1,1.8-15.2,3.1-24.4,3.9l2.2,6.7c11.8-.7,22.6-2.5,32.6-5.6l.8-.3h.3c8,2.5,18.3,4.4,30.7,5.9l3.2-6.6c-9.1-1.3-16.7-2.6-22.9-4.2ZM1687,1107.6h29.8v3.4h-29.8v-3.4ZM1687,1115.8h29.8v3.1h-29.8v-3.1ZM1687,1123.7h29.8v3.2h-29.8v-3.2ZM1685.1,1134v4.6l-5.9-3.6v-2.8h21.6l-4.4,4c4.3,2.2,7.6,4.3,10,6.2l4.8-4.2c-1.8-2-3.9-4-6.1-5.9h18.9v2.6l-4.6,3.2-7-3.2c0,3.1-.3,5.2-.8,6.3-.5,1.1-1.6,1.7-3.5,1.8-1.3.2-3,.3-5.4.2-2.3,0-4.2,0-5.5-.2-1.3-.3-1.8-1.4-1.8-3.3v-5.7h-10.4ZM1703.6,1163.5c-3.9-1.6-7.6-3.7-11.3-5.9h21.7c-3.2,2.2-6.7,4.3-10.4,5.9Z"/>
            </g>
          </g>
        </g>
      </g>
      <path class="st11" d="M1662.4,1034.2v-.6l-1.1.9c.4,0,.7-.2,1.1-.2Z"/>
      <path class="st11" d="M1673.6,1031.4c2.6-.7,5.1-1.4,7.6-2.1l.5,4.9h31.6v-9.6h-30.2v-7.5l-9.5,7.5v6.7Z"/>
      <polygon class="st11" points="1702.6 1016.7 1702.6 1005.4 1697.8 1005.4 1683.6 1016.7 1702.6 1016.7"/>
      <path class="st16" d="M1661.3,1034.4l1.1-.9v-18.4h-6.4c-1.1,5-2.4,10-4,15l-6.6-3.5c2.2-10.7,3.4-21.5,3.5-32.5l9.9,2.1c-.3,3.4-.8,7-1.3,10.5h4.8v-19.6h11.2v19.6h6.7v8.3h-6.7v9.5l9.5-7.5v-.4h.5l14.2-11.3h-16.6v-7.9h21.3v-11h12v5.6l20.6-16.4c-22.1-17.7-31.9-19.2-44.3-19.2s-24.6,1.8-53.2,26.6c-23,19.9-49.8,31.5-69.5,38,0,16.9,1.1,47.4,7,81.8l72.2-57.4-1.9-7.6c5.4-1.2,10.7-2.3,15.9-3.5Z"/>
      <polygon class="st5" points="1683 1017.1 1683.6 1016.7 1683 1016.7 1683 1017.1"/>
      <g>
        <g>
          <path class="st18" d="M1726.3,1227.9c-1-1.6-1.3-3.6-.6-5.4h0c.9-2.6,0-5.5-2.1-7.1-1.6-1.1-2.5-2.9-2.5-4.9,0-2.7-1.9-5.1-4.6-5.8-1.9-.5-3.4-1.8-4.1-3.6h0c-1-2.5-3.6-4.1-6.4-3.8h0c-1.9.2-3.8-.5-5.1-1.9h0c-1.9-2-4.9-2.5-7.3-1.2-1.7.9-3.7.9-5.5,0h0c-2.5-1.2-5.4-.6-7.2,1.5-1.3,1.4-3.2,2.2-5.1,2.1h0c-2.7-.2-5.3,1.4-6.2,4-.7,1.8-2.1,3.2-4,3.8h0c-2.6.8-4.4,3.2-4.4,6,0,1.9-.8,3.8-2.4,4.9-2.2,1.7-2.9,4.6-1.9,7.2.7,1.8.6,3.8-.4,5.5-1.4,2.4-1.1,5.4.8,7.4h0c1.3,1.4,1.9,3.3,1.6,5.2-.5,2.7.9,5.4,3.4,6.6,1.7.8,3,2.4,3.4,4.3.5,2.7,2.8,4.7,5.6,4.9,1.9.1,3.7,1.2,4.7,2.8h0c1.5,2.3,4.3,3.4,6.9,2.6,1.8-.6,3.8-.2,5.4.9,2.2,1.6,5.2,1.6,7.4-.1,1.5-1.2,3.5-1.6,5.4-1.1,2.7.7,5.5-.4,6.9-2.8h0c1-1.7,2.7-2.8,4.6-3,2.7-.3,4.9-2.4,5.4-5.1.3-1.9,1.5-3.5,3.2-4.4,2.4-1.3,3.7-4,3.2-6.7-.4-1.9.1-3.8,1.4-5.3,1.8-2.1,2-5.1.6-7.4Z"/>
          <circle class="st15" cx="1691.5" cy="1229.2" r="30.1"/>
          <circle class="st18" cx="1691.5" cy="1229.2" r="27.5"/>
          <circle class="st15" cx="1691.5" cy="1229.2" r="25.8" transform="translate(210.6 2705.4) rotate(-80.9)"/>
        </g>
        <g>
          <path class="st8" d="M1706.7,1219c-5.5-1.5-12.5.7-14.2,1.3-1.6-2.1-4.1-3.5-6.9-3.5-4.8,0-8.7,3.9-8.7,8.7s.2,2,.5,2.8c-.9.7-8.2,6.7-2.9,11.6,4.3,3.4,17.8,3.3,26.8-4.5,0,0-8.6,5.3-16.4,5.6-7.8.3-10.4-1.9-10.3-5,.2-1.9,2.7-4.3,4.1-5.3,1.6,2.1,4.1,3.5,6.9,3.5,4.8,0,8.7-3.9,8.7-8.7s-.1-1.8-.4-2.7c1.5-.7,9.7-3.1,13.9-2,6.2,2.5,1.5,8.1,1.5,8.1,3.6-2.9,3.8-8.3-2.5-10Z"/>
          <path class="st8" d="M1705.8,1229.6c-1.9,0-3.4,1.5-3.4,3.4s1.5,3.4,3.4,3.4,3.4-1.5,3.4-3.4-1.5-3.4-3.4-3.4Z"/>
        </g>
        <g class="st2">
          <path class="st14" d="M1673.6,1247c4.5,4.5,10.8,7.3,17.6,7.3,13.8,0,25-11.2,25-25s-2.8-13.1-7.3-17.6l-35.3,35.3Z"/>
        </g>
      </g>
      <polygon class="st3" points="1702.6 986.5 1702.6 997.5 1681.2 997.5 1681.2 1005.4 1697.8 1005.4 1714.5 992.1 1714.5 986.5 1702.6 986.5"/>
      <path class="st3" d="M1645.4,1038l1.9,7.6,14-11.1c-5.2,1.2-10.5,2.3-15.9,3.5Z"/>
      <path class="st3" d="M1680.2,1015.2v-8.3h-6.7v-19.6h-11.2v19.6h-4.8c.5-3.6,1-7.1,1.3-10.5l-9.9-2.1c0,10.9-1.3,21.7-3.5,32.5l6.6,3.5c1.5-4.9,2.9-10,4-15h6.4v18.4l11.2-8.9v-9.5h6.7Z"/>
      <path class="st3" d="M1735.5,1175.6l-2.6,2.1c.5,0,1,.1,1.5.2l1.1-2.3Z"/>
    </g>
  </g>
</svg>