<?xml version="1.0" encoding="UTF-8"?>
<svg xmlns="http://www.w3.org/2000/svg" version="1.1" xmlns:xlink="http://www.w3.org/1999/xlink" viewBox="0 0 2100 2100">
  <!-- Generator: Adobe Illustrator 29.6.0, SVG Export Plug-In . SVG Version: 2.1.1 Build 207)  -->
  <defs>
    <style>
      .st0 {
        fill: #af221e;
      }

      .st1 {
        opacity: .5;
      }

      .st1, .st2, .st3 {
        mix-blend-mode: multiply;
      }

      .st1, .st4 {
        fill: #7c3929;
      }

      .st5 {
        fill: #ff301a;
      }

      .st2 {
        opacity: .4;
      }

      .st6 {
        mask: url(#mask);
      }

      .st7 {
        mix-blend-mode: soft-light;
        opacity: .8;
      }

      .st8 {
        fill: #ffc300;
      }

      .st9 {
        isolation: isolate;
      }

      .st10 {
        fill: #fcb912;
      }

      .st11 {
        font-family: ARFangXinShuH7B5Std-HV-B5pc-H, 'AR FangXinShuH7B5Std';
        font-size: 96.6px;
        letter-spacing: 0em;
      }

      .st11, .st12 {
        fill: #ffdf66;
      }

      .st13 {
        fill: #ff9b0b;
      }

      .st14 {
        fill: #681f10;
      }

      .st15 {
        fill: #f2860f;
      }

      .st16 {
        fill: #ffe799;
      }

      .st17 {
        fill: #f7432b;
      }

      .st18 {
        filter: url(#luminosity-invert);
      }

      .st19 {
        fill: #ffc823;
      }
    </style>
    <filter id="luminosity-invert" x="1644.3" y="990.1" width="93.1" height="189.4" color-interpolation-filters="sRGB" filterUnits="userSpaceOnUse">
      <feColorMatrix result="cm" values="-1 0 0 0 1 0 -1 0 0 1 0 0 -1 0 1 0 0 0 1 0"/>
    </filter>
    <mask id="mask" x="1644.3" y="990.1" width="93.1" height="189.4" maskUnits="userSpaceOnUse">
      <g class="st18">
        <image width="388" height="789" transform="translate(1644.3 990.1) scale(.2)" xlink:href="冠軍-1.png"/>
      </g>
    </mask>
  </defs>
  <g class="st9">
    <g id="objects">
      <g>
        <path class="st10" d="M1690.8,1301.7c164.2-46.6,147.2-299.6,147.2-299.6,0,0-44.4-8.9-77.7-37.7-33.3-28.9-49.8-32.7-69.5-32.7s-36.3,3.8-69.5,32.7c-33.3,28.9-77.7,37.7-77.7,37.7,0,0-17,253,147.2,299.6Z"/>
        <g>
          <path class="st12" d="M1690.8,1288.7c-132.5-40.8-136.1-232.8-135.1-276.8,15.7-4.4,47.7-15.5,73.7-38.1,31.8-27.5,45.5-29.7,61.4-29.7s29.6,2.1,61.4,29.7c26.1,22.6,58,33.7,73.8,38.1.5,19.6,0,68.6-12.2,120.2-20.2,85.1-61.5,137.7-122.9,156.6Z"/>
          <path class="st14" d="M1690.8,1290.3h-.5c-56.8-17.6-96.7-64.1-118.6-138.4-17.3-58.6-18.1-117.5-17.6-140.1v-1.2s1.1-.3,1.1-.3c16.3-4.6,47.5-15.6,73.1-37.8,32.2-27.9,46.1-30,62.4-30s30.2,2.2,62.4,30c25.6,22.2,56.8,33.2,73.1,37.8l1.1.3v1.2c.5,18.9.1,68.5-12.2,120.6-20.3,85.6-62,138.7-124,157.7h-.5ZM1557.3,1013c-.8,41.3,2.9,233.3,133.6,274,60.6-18.8,101.4-71.1,121.4-155.3,12-50.7,12.6-99.1,12.2-118.7-16.8-4.8-47.7-16-73.2-38.1-31.4-27.2-44.8-29.3-60.4-29.3s-29,2.1-60.3,29.3c-25.5,22.1-56.4,33.3-73.2,38.1Z"/>
        </g>
        <path class="st4" d="M1690.8,1282.1c-122.9-39.6-129.4-218.9-129-265.6,17.8-5.4,47.1-16.8,71.7-38.1,30.2-26.2,42.3-28.1,57.3-28.1s27.1,2,57.3,28.1c24.6,21.3,53.9,32.7,71.7,38.1.2,21.2-.8,66.6-12.1,114.1-19.4,81.9-58.7,132.8-116.9,151.5Z"/>
        <g>
          <path class="st1" d="M1644,1248.4c13.9,12.2,29.5,21.3,46.9,27.1,54.9-18.5,92.1-67.7,110.8-146.4.6-2.5,1.1-4.9,1.7-7.4l-159.3,126.6Z"/>
          <path class="st1" d="M1690.8,956.5c-14,0-24.6,1.8-53.2,26.6-23,19.9-49.8,31.5-69.5,38,0,16.9,1.1,47.4,7,81.8l160.1-127.2c-22.1-17.7-31.9-19.2-44.3-19.2Z"/>
          <g>
            <text class="st11" transform="translate(1642.9 1067.7)"><tspan x="0" y="0">冠</tspan><tspan x="0" y="101">軍</tspan></text>
            <g class="st6">
              <g class="st7">
                <path class="st13" d="M1702.3,1026.7l-9.5,3.9c4,4.7,7.1,9.5,9.6,14l6.6-2.5c-1.6-5-3.9-10.1-6.7-15.4ZM1663.4,1000.4h55.1v5.5h-5.7v9.5h-20.9v7.9h20.9v24.1c0,1.4-.4,2.5-1,3.1-.7.7-1.8,1-3.6,1s-5-.3-8.2-.8l1.7,9c3,.5,6.2.8,9.7.8s7.7-.7,9.6-2.1c1.8-1.4,2.8-3.8,2.8-7v-28h9.9v-7.9h-9.9v-6.3h6.1v-16.8h-77.9v17.2h11.4v-9.1ZM1646.3,1072.2l6.7,4.4c9.5-7.7,14.2-20.2,14.2-37.3v-2.5h7v28.5c0,5,3,7.8,8.9,8.3,5.1.4,12.6.6,22.4.6s16.4-.2,19.8-.6c3.6-.7,6-2.3,7.4-4.9,1.4-2.6,2.1-7,2.2-12.8l-10.1-4.2c0,5-.2,8.4-.6,10.1-.5,1.7-1.6,2.8-3.6,3.1-3,.5-8.1.7-15.6.7-7.4,0-13.2-.2-17.3-.7-1.7-.3-2.6-1.5-2.6-3.9v-24.2h7.3v-7.7h-44.3v7.7h8v2.5c0,14.7-3.3,25.6-9.9,32.8ZM1688.7,1012.5h-36.8v7.7h36.8v-7.7ZM1697.2,1158.2v-5.6h28.9v-32.5h-28.9v-5.4h26.8v-5.1h8.1v-16.7h-81.9v16.7h8.3v5.1h27v5.4h-28.9v32.5h28.9v5.6h-38.1v8.1h38.1v11h11.8v-11h38.1v-8.1h-38.1ZM1697.2,1101h23.5v6h-23.5v-6ZM1697.2,1127.7h17.1v5.2h-17.1v-5.2ZM1697.2,1139.8h17.1v5.2h-17.1v-5.2ZM1685.5,1145h-17.1v-5.2h17.1v5.2ZM1685.5,1132.9h-17.1v-5.2h17.1v5.2ZM1685.5,1107h-23.9v-6h23.9v6Z"/>
              </g>
            </g>
          </g>
        </g>
        <g>
          <g>
            <path class="st5" d="M1571,1218.3c-21.5,12.3-43.8,20.6-64.4,24,2.9,8.8,7.2,17.1,12.7,24.5-7.9,11.3-17,22.6-26.9,33.9,25-5.1,52.3-14.6,79.3-27.6,2.2-9.4,4.3-18.8,6.5-28.2-2.8-8.8-4.4-17.9-7.2-26.6Z"/>
            <path class="st0" d="M1545.8,1242.4c0,.1,4.9,19.1,26,30.3,5.1-21,10.2-42,15.4-62.8-8.9-8.3-17.8-16.2-26.6-23.9-5,18.7-9.9,37.5-14.8,56.4Z"/>
          </g>
          <g>
            <path class="st5" d="M1811,1218.3c21.5,12.3,43.8,20.6,64.4,24-2.9,8.8-7.2,17.1-12.7,24.5,7.9,11.3,17,22.6,26.9,33.9-25-5.1-52.3-14.6-79.3-27.6-2.2-9.4-4.3-18.8-6.5-28.2,2.8-8.8,4.4-17.9,7.2-26.6Z"/>
            <path class="st0" d="M1836.2,1242.4c0,.1-4.9,19.1-26,30.3-5.1-21-10.2-42-15.4-62.8,8.9-8.3,17.8-16.2,26.6-23.9,5,18.7,9.9,37.5,14.8,56.4Z"/>
          </g>
          <path class="st17" d="M1836.6,1242.6c-83.1,18.6-207.7,18.5-290.8-.1,4.9-18.9,9.8-37.7,14.8-56.4,74.5,22.4,186.8,22.4,261.2.1,5,18.7,9.9,37.5,14.8,56.4Z"/>
        </g>
      </g>
      <g>
        <g>
          <path class="st8" d="M1726.3,1227.9c-1-1.6-1.3-3.6-.6-5.4h0c.9-2.6,0-5.5-2.1-7.1-1.6-1.1-2.5-2.9-2.5-4.9,0-2.7-1.9-5.1-4.6-5.8-1.9-.5-3.4-1.8-4.1-3.6h0c-1-2.5-3.6-4.1-6.4-3.8h0c-1.9.2-3.8-.5-5.1-1.9h0c-1.9-2-4.9-2.5-7.3-1.2-1.7.9-3.7.9-5.5,0h0c-2.5-1.2-5.4-.6-7.2,1.5-1.3,1.4-3.2,2.2-5.1,2.1h0c-2.7-.2-5.3,1.4-6.2,4-.7,1.8-2.1,3.2-4,3.8h0c-2.6.8-4.4,3.2-4.4,6,0,1.9-.8,3.8-2.4,4.9-2.2,1.7-2.9,4.6-1.9,7.2.7,1.8.6,3.8-.4,5.5-1.4,2.4-1.1,5.4.8,7.4h0c1.3,1.4,1.9,3.3,1.6,5.2-.5,2.7.9,5.4,3.4,6.6,1.7.8,3,2.4,3.4,4.3.5,2.7,2.8,4.7,5.6,4.9,1.9.1,3.7,1.2,4.7,2.8h0c1.5,2.3,4.3,3.4,6.9,2.6,1.8-.6,3.8-.2,5.4.9,2.2,1.6,5.2,1.6,7.4-.1,1.5-1.2,3.5-1.6,5.4-1.1,2.7.7,5.5-.4,6.9-2.8h0c1-1.7,2.7-2.8,4.6-3,2.7-.3,4.9-2.4,5.4-5.1.3-1.9,1.5-3.5,3.2-4.4,2.4-1.3,3.7-4,3.2-6.7-.4-1.9.1-3.8,1.4-5.3,1.8-2.1,2-5.1.6-7.4Z"/>
          <circle class="st15" cx="1691.5" cy="1229.2" r="30.1"/>
          <circle class="st19" cx="1691.5" cy="1229.2" r="27.5"/>
          <circle class="st16" cx="1691.5" cy="1229.2" r="25.8" transform="translate(210.6 2705.4) rotate(-80.9)"/>
        </g>
        <g class="st3">
          <g>
            <path class="st5" d="M1706.7,1219c-5.5-1.5-12.5.7-14.2,1.3-1.6-2.1-4.1-3.5-6.9-3.5-4.8,0-8.7,3.9-8.7,8.7s.2,2,.5,2.8c-.9.7-8.2,6.7-2.9,11.6,4.3,3.4,17.8,3.3,26.8-4.5,0,0-8.6,5.3-16.4,5.6-7.8.3-10.4-1.9-10.3-5,.2-1.9,2.7-4.3,4.1-5.3,1.6,2.1,4.1,3.5,6.9,3.5,4.8,0,8.7-3.9,8.7-8.7s-.1-1.8-.4-2.7c1.5-.7,9.7-3.1,13.9-2,6.2,2.5,1.5,8.1,1.5,8.1,3.6-2.9,3.8-8.3-2.5-10Z"/>
            <path class="st5" d="M1705.8,1229.6c-1.9,0-3.4,1.5-3.4,3.4s1.5,3.4,3.4,3.4,3.4-1.5,3.4-3.4-1.5-3.4-3.4-3.4Z"/>
          </g>
        </g>
        <g class="st2">
          <path class="st12" d="M1673.6,1247c4.5,4.5,10.8,7.3,17.6,7.3,13.8,0,25-11.2,25-25s-2.8-13.1-7.3-17.6l-35.3,35.3Z"/>
        </g>
      </g>
    </g>
    <g id="_圖層_2" data-name="圖層_2">
      <g>
        <polygon class="st10" points="1668 1029.1 1648.2 1029.1 1648.2 1036.8 1656.2 1036.8 1656.2 1038.5 1668 1029.1"/>
        <polygon class="st10" points="1651.9 1020.2 1679.2 1020.2 1688.7 1012.6 1688.7 1012.5 1651.9 1012.5 1651.9 1020.2"/>
        <polygon class="st10" points="1652 1009.5 1663.4 1009.5 1663.4 1000.4 1704.1 1000.4 1714.3 992.3 1652 992.3 1652 1009.5"/>
      </g>
    </g>
  </g>
</svg>