<?xml version="1.0" encoding="UTF-8"?>
<svg id="_圖層_1" data-name="圖層_1" xmlns="http://www.w3.org/2000/svg" version="1.1" viewBox="0 0 2100 2100">
  <!-- Generator: Adobe Illustrator 29.6.0, SVG Export Plug-In . SVG Version: 2.1.1 Build 207)  -->
  <defs>
    <style>
      .st0 {
        fill: #af221e;
      }

      .st1 {
        fill: #ff301a;
      }

      .st2 {
        fill: #ffc300;
      }

      .st3, .st4 {
        isolation: isolate;
      }

      .st5 {
        fill: #fcb912;
      }

      .st6 {
        mix-blend-mode: soft-light;
        opacity: .8;
      }

      .st7 {
        fill: #ff9b0b;
      }

      .st8, .st4 {
        fill: #7c3929;
      }

      .st9, .st4, .st10 {
        mix-blend-mode: multiply;
      }

      .st4 {
        opacity: .5;
      }

      .st10 {
        opacity: .4;
      }

      .st11 {
        fill: #681f10;
      }

      .st12 {
        fill: #ffdf66;
      }

      .st13 {
        fill: #f2860f;
      }

      .st14 {
        fill: #ffe799;
      }

      .st15 {
        fill: #f7432b;
      }

      .st16 {
        fill: #ffc823;
      }
    </style>
  </defs>
  <g class="st3">
    <g id="objects">
      <g>
        <path class="st5" d="M1048.9,2027c867.1-246.1,777.4-1582.2,777.4-1582.2,0,0-234.5-47-410.3-199.1-175.9-152.6-263-172.7-367-172.7s-191.7,20.1-367,172.7c-175.9,152.6-410.3,199.1-410.3,199.1,0,0-89.8,1336.1,777.4,1582.2Z"/>
        <g>
          <path class="st12" d="M1048.9,1958.3C349.2,1742.9,330.2,728.9,335.5,496.5c82.9-23.2,251.9-81.9,389.2-201.2,167.9-145.2,240.3-156.8,324.3-156.8s156.3,11.1,324.3,156.8c137.8,119.4,306.3,178,389.7,201.2,2.6,103.5,0,362.3-64.4,634.8-106.7,449.4-324.8,727.2-649,827h-.5Z"/>
          <path class="st11" d="M1048.9,1966.8h-2.6c-300-92.9-510.7-338.5-626.3-730.9-91.4-309.5-95.6-620.5-92.9-739.9v-6.3l5.8-1.6c86.1-24.3,250.9-82.4,386-199.6,170-147.3,243.5-158.4,329.5-158.4s159.5,11.6,329.5,158.4c135.2,117.2,300,175.3,386,199.6l5.8,1.6v6.3c2.6,99.8.5,361.8-64.4,636.9-107.2,452.1-327.4,732.5-654.9,832.8h-2.6l1.1,1.1ZM343.9,502.4c-4.2,218.1,15.3,1232.1,705.5,1447,320-99.3,535.5-375.5,641.1-820.1,63.4-267.7,66.5-523.4,64.4-626.9-88.7-25.3-251.9-84.5-386.6-201.2-165.8-143.6-236.6-154.7-319-154.7s-153.2,11.1-318.4,154.7c-134.7,116.7-297.9,175.9-386.6,201.2h-.5Z"/>
        </g>
        <path class="st8" d="M1048.9,1923.5C399.9,1714.4,365.6,767.5,367.7,520.8c94-28.5,248.7-88.7,378.7-201.2,159.5-138.4,223.4-148.4,302.6-148.4s143.1,10.6,302.6,148.4c129.9,112.5,284.6,172.7,378.7,201.2,1.1,112-4.2,351.7-63.9,602.6-102.5,432.5-310,701.3-617.4,800.1Z"/>
        <g>
          <path class="st4" d="M801.8,1745.5c73.4,64.4,155.8,112.5,247.7,143.1,289.9-97.7,486.4-357.5,585.1-773.1,3.2-13.2,5.8-25.9,9-39.1l-841.3,668.6-.5.5Z"/>
          <path class="st4" d="M1048.9,204c-73.9,0-129.9,9.5-281,140.5-121.5,105.1-263,166.4-367,200.7,0,89.3,5.8,250.3,37,432l845.5-671.8c-116.7-93.5-168.5-101.4-234-101.4h-.5Z"/>
          <g>
            <g>
              <path class="st12" d="M824,587.4h234v40.7h-38.6v127.8c0,12.1,4.8,19,13.7,20.6,21.7,2.6,52.3,4.2,91.4,3.7,39.1,0,66.5-1.1,82.4-3.7,10-1.6,16.4-7.4,19-16.4,2.1-9,3.2-26.9,3.2-53.3l53.3,22.2c0,31.2-4.8,53.9-11.6,67.6-7.4,13.7-20.6,22.7-39.1,25.9-18,2.1-52.8,3.2-104.6,3.2s-91.4-1.1-118.3-3.2c-31.2-2.6-47-17.4-47-43.8v-150.5h-37v13.2c0,90.3-24.8,156.3-75,197l-35.4-23.2c34.9-38,52.3-96.1,52.3-173.2v-13.2h-42.2v-40.7l-.5-.5ZM843.5,499.7h194.3v40.7h-194.3v-40.7ZM1054.8,515h110.4v-50.2h30.1v-29h-291v48.1h-60.2v-90.8h411.4v88.7h-32.2v33.3h52.3v41.7h-52.3v147.9c0,16.9-5.3,29-14.8,37-9.5,7.4-26.4,11.1-50.7,11.1s-35.4-1.6-51.2-4.2l-9-47.5c16.9,2.6,31.2,4.2,43.3,4.2s15.3-1.6,19-5.3,4.8-8.4,5.3-16.4v-127.3h-110.4v-41.7.5ZM1109.7,574.7c14.8,27.5,26.4,54.4,35.4,81.3l-34.9,13.2c-12.7-23.8-29.6-49.1-50.7-73.9l50.2-20.6Z"/>
              <path class="st12" d="M834.5,924.3h432.5v88.2h-42.8v26.9h-141.5v28.5h152.6v171.6h-152.6v29.6h201.2v42.8h-201.2v58.1h-62.3v-58.1h-201.2v-42.8h201.2v-29.6h-152.6v-171.6h152.6v-28.5h-142.6v-26.9h-43.8v-88.2h.5ZM894.7,998.8h126.2v-31.7h-126.2v31.7ZM1021,1135.6v-27.5h-90.3v27.5h90.3ZM1021,1199.5v-27.5h-90.3v27.5h90.3ZM1082.7,998.8h124.1v-31.7h-124.1v31.7ZM1082.7,1108.1v27.5h90.3v-27.5h-90.3ZM1082.7,1172v27.5h90.3v-27.5h-90.3Z"/>
            </g>
            <g class="st6">
              <g>
                <path class="st7" d="M824,587.4h234v40.7h-38.6v127.8c0,12.1,4.8,19,13.7,20.6,21.7,2.6,52.3,4.2,91.4,3.7,39.1,0,66.5-1.1,82.4-3.7,10-1.6,16.4-7.4,19-16.4,2.1-9,3.2-26.9,3.2-53.3l53.3,22.2c0,31.2-4.8,53.9-11.6,67.6-7.4,13.7-20.6,22.7-39.1,25.9-18,2.1-52.8,3.2-104.6,3.2s-91.4-1.1-118.3-3.2c-31.2-2.6-47-17.4-47-43.8v-150.5h-37v13.2c0,90.3-24.8,156.3-75,197l-35.4-23.2c34.9-38,52.3-96.1,52.3-173.2v-13.2h-42.2v-40.7l-.5-.5ZM843.5,499.7h194.3v40.7h-194.3v-40.7ZM1054.8,515h110.4v-50.2h30.1v-29h-291v48.1h-60.2v-90.8h411.4v88.7h-32.2v33.3h52.3v41.7h-52.3v147.9c0,16.9-5.3,29-14.8,37-9.5,7.4-26.4,11.1-50.7,11.1s-35.4-1.6-51.2-4.2l-9-47.5c16.9,2.6,31.2,4.2,43.3,4.2s15.3-1.6,19-5.3,4.8-8.4,5.3-16.4v-127.3h-110.4v-41.7.5ZM1109.7,574.7c14.8,27.5,26.4,54.4,35.4,81.3l-34.9,13.2c-12.7-23.8-29.6-49.1-50.7-73.9l50.2-20.6Z"/>
                <path class="st7" d="M834.5,924.3h432.5v88.2h-42.8v26.9h-141.5v28.5h152.6v171.6h-152.6v29.6h201.2v42.8h-201.2v58.1h-62.3v-58.1h-201.2v-42.8h201.2v-29.6h-152.6v-171.6h152.6v-28.5h-142.6v-26.9h-43.8v-88.2h.5ZM894.7,998.8h126.2v-31.7h-126.2v31.7ZM1021,1135.6v-27.5h-90.3v27.5h90.3ZM1021,1199.5v-27.5h-90.3v27.5h90.3ZM1082.7,998.8h124.1v-31.7h-124.1v31.7ZM1082.7,1108.1v27.5h90.3v-27.5h-90.3ZM1082.7,1172v27.5h90.3v-27.5h-90.3Z"/>
              </g>
            </g>
          </g>
        </g>
        <g>
          <g>
            <path class="st1" d="M416.3,1586.6c-113.5,65-231.3,108.8-340.1,126.7,15.3,46.5,38,90.3,67.1,129.4-41.7,59.7-89.8,119.4-142.1,179,132-26.9,276.2-77.1,418.8-145.8,11.6-49.6,22.7-99.3,34.3-148.9-14.8-46.5-23.2-94.5-38-140.5h0Z"/>
            <path class="st0" d="M283.2,1713.8c0,.5,25.9,100.9,137.3,160,26.9-110.9,53.9-221.8,81.3-331.7-47-43.8-94-85.6-140.5-126.2-26.4,98.8-52.3,198-78.2,297.9Z"/>
          </g>
          <g>
            <path class="st1" d="M1683.7,1586.6c113.5,65,231.3,108.8,340.1,126.7-15.3,46.5-38,90.3-67.1,129.4,41.7,59.7,89.8,119.4,142.1,179-132-26.9-276.2-77.1-418.8-145.8-11.6-49.6-22.7-99.3-34.3-148.9,14.8-46.5,23.2-94.5,38-140.5h0Z"/>
            <path class="st0" d="M1816.8,1713.8c0,.5-25.9,100.9-137.3,160-26.9-110.9-53.9-221.8-81.3-331.7,47-43.8,94-85.6,140.5-126.2,26.4,98.8,52.3,198,78.2,297.9Z"/>
          </g>
          <path class="st15" d="M1818.9,1714.9c-438.9,98.2-1096.9,97.7-1535.7-.5,25.9-99.8,51.8-199.1,78.2-297.9,393.4,118.3,986.5,118.3,1379.4.5,26.4,98.8,52.3,198,78.2,297.9h0Z"/>
        </g>
      </g>
      <g>
        <g>
          <path class="st2" d="M1236.4,1637.3c-5.3-8.4-6.9-19-3.2-28.5h0c4.8-13.7,0-29-11.1-37.5-8.4-5.8-13.2-15.3-13.2-25.9s-10-26.9-24.3-30.6c-10-2.6-18-9.5-21.7-19h0c-5.3-13.2-19-21.7-33.8-20.1h0c-10,1.1-20.1-2.6-26.9-10h0c-10-10.6-25.9-13.2-38.6-6.3-9,4.8-19.5,4.8-29,0h0c-13.2-6.3-28.5-3.2-38,7.9-6.9,7.4-16.9,11.6-26.9,11.1h0c-14.3-1.1-28,7.4-32.7,21.1-3.7,9.5-11.1,16.9-21.1,20.1h0c-13.7,4.2-23.2,16.9-23.2,31.7s-4.2,20.1-12.7,25.9c-11.6,9-15.3,24.3-10,38,3.7,9.5,3.2,20.1-2.1,29-7.4,12.7-5.8,28.5,4.2,39.1h0c6.9,7.4,10,17.4,8.4,27.5-2.6,14.3,4.8,28.5,18,34.9,9,4.2,15.8,12.7,18,22.7,2.6,14.3,14.8,24.8,29.6,25.9,10,.5,19.5,6.3,24.8,14.8h0c7.9,12.1,22.7,18,36.4,13.7,9.5-3.2,20.1-1.1,28.5,4.8,11.6,8.4,27.5,8.4,39.1-.5,7.9-6.3,18.5-8.4,28.5-5.8,14.3,3.7,29-2.1,36.4-14.8h0c5.3-9,14.3-14.8,24.3-15.8,14.3-1.6,25.9-12.7,28.5-26.9,1.6-10,7.9-18.5,16.9-23.2,12.7-6.9,19.5-21.1,16.9-35.4-2.1-10,.5-20.1,7.4-28,9.5-11.1,10.6-26.9,3.2-39.1l-.5-.5Z"/>
          <circle class="st13" cx="1052.6" cy="1644.1" r="159"/>
          <circle class="st16" cx="1052.6" cy="1644.1" r="145.2"/>
          <circle class="st14" cx="1054.5" cy="1646.2" r="136.3"/>
        </g>
        <g class="st9">
          <g>
            <path class="st1" d="M1132.9,1590.3c-29-7.9-66,3.7-75,6.9-8.4-11.1-21.7-18.5-36.4-18.5-25.3,0-45.9,20.6-45.9,45.9s1.1,10.6,2.6,14.8c-4.8,3.7-43.3,35.4-15.3,61.3,22.7,18,94,17.4,141.5-23.8,0,0-45.4,28-86.6,29.6-41.2,1.6-54.9-10-54.4-26.4,1.1-10,14.3-22.7,21.7-28,8.4,11.1,21.7,18.5,36.4,18.5,25.3,0,45.9-20.6,45.9-45.9s-.5-9.5-2.1-14.3c7.9-3.7,51.2-16.4,73.4-10.6,32.7,13.2,7.9,42.8,7.9,42.8,19-15.3,20.1-43.8-13.2-52.8l-.5.5Z"/>
            <path class="st1" d="M1128.2,1646.2c-10,0-18,7.9-18,18s7.9,18,18,18,18-7.9,18-18-7.9-18-18-18Z"/>
          </g>
        </g>
        <g class="st10">
          <path class="st12" d="M958.1,1738.1c23.8,23.8,57,38.6,92.9,38.6,72.9,0,132-59.1,132-132s-14.8-69.2-38.6-92.9l-186.4,186.4h0Z"/>
        </g>
      </g>
    </g>
    <g id="_圖層_2">
      <g>
        <polygon class="st5" points="928.5 587.4 824 587.4 824 628 866.2 628 866.2 637 928.5 587.4"/>
        <polygon class="st5" points="843.5 540.4 987.7 540.4 1037.9 500.2 1037.9 499.7 843.5 499.7 843.5 540.4"/>
        <polygon class="st5" points="844 483.9 904.2 483.9 904.2 435.8 1119.2 435.8 1173 393 844 393 844 483.9"/>
      </g>
    </g>
  </g>
</svg>